<?xml version="1.0" encoding="utf-8"?>
<!-- Generator: Adobe Illustrator 19.1.0, SVG Export Plug-In . SVG Version: 6.00 Build 0)  -->
<svg version="1.1" id="Layer_1" xmlns="http://www.w3.org/2000/svg" xmlns:xlink="http://www.w3.org/1999/xlink" x="0px" y="0px"
	 viewBox="-121 37 45 18" style="enable-background:new -121 37 45 18;" xml:space="preserve">
<style type="text/css">
	.st0{filter:url(#Adobe_OpacityMaskFilter);}
	.st1{fill:#FFFFFF;}
	.st2{mask:url(#mask-2);fill:#00615F;}
	.st3{filter:url(#Adobe_OpacityMaskFilter_1_);}
	.st4{mask:url(#mask-4);fill:#00615F;}
</style>
<title>Group</title>
<desc>Created with Sketch.</desc>
<g id="Group-3">
	<g id="Clip-2">
	</g>
	<defs>
		<filter id="Adobe_OpacityMaskFilter" filterUnits="userSpaceOnUse" x="-121" y="37" width="18" height="18">
			<feColorMatrix  type="matrix" values="1 0 0 0 0  0 1 0 0 0  0 0 1 0 0  0 0 0 1 0"/>
		</filter>
	</defs>
	<mask maskUnits="userSpaceOnUse" x="-121" y="37" width="18" height="18" id="mask-2">
		<g class="st0">
			<polygon id="path-1" class="st1" points="-112,55 -121,55 -121,37 -112,37 -103,37 -103,55 			"/>
		</g>
	</mask>
	<path id="Fill-1" class="st2" d="M-109.7,43l-0.8,0c-0.7,0-0.8,0.3-0.8,0.8v1h1.6l-0.2,1.6h-1.4v4.1h-1.7v-4.1h-1.4v-1.6h1.4v-1.2
		c0-1.4,0.8-2.1,2.1-2.1c0.6,0,1.1,0,1.2,0.1V43z M-112,37c-5,0-9,4-9,9c0,5,4,9,9,9c5,0,9-4,9-9C-103,41-107,37-112,37L-112,37z"/>
</g>
<g id="Group-6" transform="translate(26.000000, 0.000000)">
	<g id="Clip-5">
	</g>
	<defs>
		<filter id="Adobe_OpacityMaskFilter_1_" filterUnits="userSpaceOnUse" x="-120.4" y="37" width="18.4" height="18">
			<feColorMatrix  type="matrix" values="1 0 0 0 0  0 1 0 0 0  0 0 1 0 0  0 0 0 1 0"/>
		</filter>
	</defs>
	<mask maskUnits="userSpaceOnUse" x="-120.4" y="37" width="18.4" height="18" id="mask-4">
		<g class="st3">
			<polygon id="path-3" class="st1" points="-102,37 -102,55 -120.4,55 -120.4,37 			"/>
		</g>
	</mask>
	<path id="Fill-4" class="st4" d="M-110.5,48c-0.6,0-1.1-0.3-1.3-0.6c0,0-0.3,1.2-0.4,1.4c-0.2,0.8-0.9,1.6-1,1.7c0,0-0.1,0-0.1,0
		c0-0.1-0.2-1.1,0-2c0.1-0.4,0.7-2.8,0.7-2.8s-0.2-0.3-0.2-0.8c0-0.8,0.5-1.3,1-1.3c0.5,0,0.7,0.4,0.7,0.8c0,0.5-0.3,1.2-0.5,1.8
		c-0.1,0.5,0.3,1,0.8,1c1,0,1.7-1.3,1.7-2.7c0-1.1-0.8-2-2.2-2c-1.6,0-2.6,1.2-2.6,2.5c0,0.5,0.1,0.8,0.3,1c0.1,0.1,0.1,0.2,0.1,0.3
		c0,0.1-0.1,0.3-0.1,0.4c0,0.1-0.1,0.2-0.3,0.1c-0.7-0.3-1.1-1.1-1.1-2c0-1.5,1.3-3.2,3.8-3.2c2,0,3.4,1.4,3.4,3
		C-107.6,46.5-108.8,48-110.5,48 M-111.2,37c-5.1,0-9.2,4-9.2,9c0,5,4.1,9,9.2,9c5.1,0,9.2-4,9.2-9C-102,41-106.1,37-111.2,37"/>
</g>
</svg>
