<?xml version="1.0" encoding="utf-8"?>
<!-- Generator: Adobe Illustrator 19.1.0, SVG Export Plug-In . SVG Version: 6.00 Build 0)  -->
<svg version="1.1" id="Layer_1" xmlns="http://www.w3.org/2000/svg" xmlns:xlink="http://www.w3.org/1999/xlink" x="0px" y="0px"
	 viewBox="0 0 287 90" style="enable-background:new 0 0 287 90;" xml:space="preserve">
<style type="text/css">
	.st0{fill:#0F404B;}
	.st1{filter:url(#Adobe_OpacityMaskFilter);}
	.st2{fill:#FFFFFF;}
	.st3{mask:url(#mask-2_1_);fill:#0F404B;}
</style>
<g id="Symbols">
	<g id="Header" transform="translate(-362.000000, 16.000000)">
		<g id="Logo" transform="translate(362.000000, -16.000000)">
			<path id="Fill-1" class="st0" d="M14.7,59.5l2.2,5.2h3.5l-10-22.6L0,64.7h3.4l2.4-5.2H14.7z M13.4,56.5H7.1l3.2-7.2L13.4,56.5z
				 M37.8,64.7H41V49.8L56.3,66V43.4h-3.2v14.8L37.8,42V64.7z M87.1,53.6v3h5.2c-0.3,3-3.1,5.4-6.3,5.4c-4.2,0-7.6-3.6-7.6-8
				c0-4.5,3.4-8.1,7.8-8.1c2.6,0,4.5,1.1,6.4,3.5l2.3-2.2c-2.6-3-5.2-4.3-8.5-4.3c-6.2,0-11,4.9-11,11.1c0,6.1,4.8,11,10.7,11
				c3.1,0,6.1-1.5,8-4c1.3-1.8,1.9-3.7,1.9-6.5v-1H87.1z M126.1,46.5v-3h-11.6v21.3h11.6v-3h-8.4v-7.1h8.1v-3h-8.1v-5.1H126.1z
				 M148.2,43.4h-3.2v21.3h9.3v-3h-6.2V43.4z M185.6,59.5l2.2,5.2h3.5l-10-22.6l-10.4,22.6h3.4l2.4-5.2H185.6z M184.3,56.5H178
				l3.2-7.2L184.3,56.5z M217.5,44.7v-1.3H209v21.3h1.4v-11h6.9v-1.3h-6.9v-7.7H217.5z M246.3,43.1c-5.9,0-10.9,5-10.9,10.9
				c0,6,4.9,11,10.9,11c5.9,0,10.9-5,10.9-11C257.2,48.1,252.2,43.1,246.3,43.1L246.3,43.1z M246.3,44.5c5.2,0,9.4,4.4,9.4,9.7
				c0,5.3-4.3,9.6-9.4,9.6c-5.2,0-9.5-4.4-9.5-9.6C236.9,48.8,241.1,44.5,246.3,44.5L246.3,44.5z M279.6,53.8l-5.7,10.9h1.5l5-9.4
				l5,9.4h1.5l-5.8-10.9l5.5-10.4h-1.6l-4.7,9l-4.8-9h-1.5L279.6,53.8z"/>
			<g id="Group-5" transform="translate(37.000000, 37.000000)">
				<g id="Clip-4">
				</g>
				<defs>
					<filter id="Adobe_OpacityMaskFilter" filterUnits="userSpaceOnUse" x="0" y="42" width="206" height="11">
						<feColorMatrix  type="matrix" values="1 0 0 0 0  0 1 0 0 0  0 0 1 0 0  0 0 0 1 0"/>
					</filter>
				</defs>
				<mask maskUnits="userSpaceOnUse" x="0" y="42" width="206" height="11" id="mask-2_1_">
					<g class="st1">
						<polygon id="path-1_1_" class="st2" points="0,53 206,53 206,42 0,42 						"/>
					</g>
				</mask>
				<path id="Fill-3" class="st3" d="M3.1,46.3c0.9,0,1.5-0.1,1.8-0.3c0.3-0.2,0.6-0.4,0.8-0.8C5.9,45,6,44.6,6,44.2
					c0-0.5-0.1-0.9-0.4-1.2c-0.3-0.3-0.6-0.6-1-0.7c-0.4-0.1-1-0.2-1.8-0.2c-0.4,0-1,0-1.8,0l-0.9,0v0.3h0.1c0.4,0,0.6,0,0.7,0.1
					c0.1,0.1,0.2,0.2,0.2,0.4c0,0.2,0.1,0.6,0.1,1.2V48c0,0.7,0,1.1-0.1,1.3c0,0.2-0.1,0.3-0.2,0.4c-0.1,0.1-0.3,0.1-0.7,0.1H0v0.3
					h3.5v-0.3H3.2c-0.3,0-0.6,0-0.7-0.1c-0.1-0.1-0.2-0.2-0.2-0.4c0-0.2,0-0.6,0-1.2v-1.7H3.1z M2.3,42.4c0.1,0,0.3,0,0.6,0
					c0.7,0,1.2,0.2,1.5,0.5c0.3,0.3,0.5,0.8,0.5,1.4c0,0.4-0.1,0.8-0.3,1.1c-0.2,0.3-0.4,0.5-0.7,0.6C3.6,46,3.2,46,2.8,46H2.3V42.4
					z M7.4,50.2c0.1-0.2,0.1-0.4,0.2-0.5c0.3,0.4,0.7,0.5,1.1,0.5c0.4,0,0.7-0.1,1-0.4c0.3-0.3,0.4-0.6,0.4-1c0-0.3-0.1-0.5-0.2-0.8
					c-0.1-0.3-0.5-0.6-1.2-0.9c-0.4-0.2-0.7-0.4-0.9-0.5c-0.2-0.2-0.2-0.3-0.2-0.5c0-0.2,0.1-0.4,0.2-0.5c0.1-0.1,0.3-0.2,0.5-0.2
					c0.3,0,0.5,0.1,0.8,0.4c0.2,0.3,0.4,0.6,0.4,0.9h0.2v-1.5H9.6c-0.1,0.2-0.2,0.4-0.2,0.4c-0.3-0.3-0.6-0.5-1-0.5
					c-0.4,0-0.7,0.1-0.9,0.4c-0.2,0.3-0.3,0.6-0.3,0.9c0,0.3,0.1,0.6,0.3,0.8c0.2,0.2,0.5,0.5,1,0.7c0.4,0.2,0.7,0.4,0.9,0.6
					c0.1,0.2,0.2,0.4,0.2,0.6c0,0.2-0.1,0.4-0.2,0.6C9.3,49.9,9,50,8.8,50c-0.7,0-1.1-0.5-1.4-1.4H7.2v1.6H7.4z M12.9,46.4
					c-0.1-0.3-0.2-0.5-0.2-0.6c0-0.1,0.2-0.2,0.6-0.2v-0.3h-2.1v0.3c0.2,0,0.4,0,0.5,0.1c0.1,0.1,0.2,0.3,0.4,0.6l1.7,3.9l-0.4,1.1
					c-0.1,0.2-0.1,0.3-0.2,0.4c-0.1,0.1-0.2,0.2-0.5,0.3c-0.4,0.2-0.6,0.4-0.6,0.7c0,0.2,0.1,0.3,0.4,0.3c0.2,0,0.3-0.1,0.5-0.3
					c0.1-0.2,0.3-0.5,0.5-1l2-5.1c0.2-0.4,0.3-0.7,0.4-0.8c0.1-0.1,0.3-0.2,0.5-0.2v-0.3h-1.6v0.3c0.4,0,0.6,0.1,0.6,0.3
					c0,0-0.1,0.3-0.2,0.6l-1.1,2.7L12.9,46.4z M19.8,49.9c-0.5,0-1-0.2-1.2-0.6c-0.3-0.4-0.4-1-0.4-1.8c0-0.7,0.1-1.3,0.4-1.6
					c0.3-0.4,0.6-0.5,1.1-0.5c0.3,0,0.5,0,0.6,0.1c0.1,0.1,0.2,0.2,0.2,0.5c0.1,0.3,0.2,0.4,0.5,0.4c0.1,0,0.2,0,0.3-0.1
					s0.1-0.2,0.1-0.3c0-0.3-0.2-0.5-0.5-0.7c-0.3-0.2-0.7-0.3-1.1-0.3c-0.7,0-1.2,0.2-1.7,0.7c-0.5,0.5-0.7,1.1-0.7,1.9
					c0,0.8,0.2,1.4,0.7,1.8c0.4,0.5,1,0.7,1.6,0.7c1,0,1.6-0.5,1.9-1.4h-0.2C21,49.6,20.5,49.9,19.8,49.9L19.8,49.9z M24.1,42H24
					c-0.4,0.2-0.9,0.2-1.4,0.2v0.3c0.3,0,0.5,0.1,0.6,0.2c0.1,0.1,0.1,0.4,0.1,0.9v4.8c0,0.5,0,0.9,0,1c0,0.1-0.1,0.2-0.1,0.3
					c-0.1,0.1-0.3,0.1-0.5,0.1h-0.1v0.3h2.3v-0.3c-0.3,0-0.4,0-0.5-0.1c-0.1-0.1-0.2-0.2-0.2-0.3c0-0.1,0-0.5,0-1v-1.9
					c0.2-0.4,0.4-0.6,0.6-0.8c0.2-0.2,0.5-0.3,0.8-0.3c0.2,0,0.5,0.1,0.6,0.2c0.2,0.1,0.3,0.3,0.3,0.5c0,0.2,0.1,0.5,0.1,0.9v1.4
					c0,0.5,0,0.8,0,1c0,0.1-0.1,0.2-0.1,0.3c-0.1,0.1-0.3,0.1-0.5,0.1h-0.1v0.3h2.4v-0.3c-0.3,0-0.5,0-0.6-0.1
					c-0.1-0.1-0.2-0.1-0.2-0.3c0-0.1,0-0.5,0-1v-1.3c0-0.5,0-0.9-0.1-1.2c-0.1-0.2-0.2-0.4-0.5-0.6s-0.6-0.2-0.9-0.2
					c-0.3,0-0.6,0.1-0.9,0.2c-0.3,0.2-0.5,0.4-0.7,0.7V42z M30.1,49.5c0.5,0.5,1,0.7,1.7,0.7c0.7,0,1.2-0.2,1.7-0.7
					c0.5-0.5,0.7-1.1,0.7-1.9c0-0.7-0.2-1.3-0.7-1.8c-0.5-0.5-1-0.7-1.7-0.7c-0.7,0-1.3,0.2-1.7,0.7c-0.5,0.5-0.7,1.1-0.7,1.8
					C29.4,48.5,29.7,49.1,30.1,49.5L30.1,49.5z M30.7,45.9c0.3-0.4,0.6-0.5,1.1-0.5c0.5,0,0.9,0.2,1.1,0.5c0.3,0.4,0.4,1,0.4,1.8
					c0,0.8-0.1,1.4-0.4,1.8c-0.3,0.3-0.6,0.5-1.1,0.5c-0.5,0-0.8-0.2-1.1-0.5c-0.3-0.3-0.4-0.9-0.4-1.8
					C30.4,46.8,30.5,46.2,30.7,45.9L30.7,45.9z M37,42c-0.1,0.1-0.3,0.1-0.6,0.2c-0.3,0.1-0.6,0.1-0.8,0.1v0.3
					c0.3,0,0.5,0.1,0.6,0.2c0.1,0.1,0.1,0.4,0.1,0.9v4.7c0,0.6,0,0.9,0,1c0,0.1-0.1,0.2-0.2,0.3c-0.1,0.1-0.3,0.1-0.5,0.1h-0.2v0.3
					H38v-0.3h-0.1c-0.2,0-0.4,0-0.5-0.1c-0.1-0.1-0.1-0.2-0.2-0.3c0-0.1,0-0.5,0-1V42H37z M40,49.5c0.5,0.5,1,0.7,1.7,0.7
					c0.7,0,1.2-0.2,1.7-0.7c0.5-0.5,0.7-1.1,0.7-1.9c0-0.7-0.2-1.3-0.7-1.8c-0.5-0.5-1-0.7-1.7-0.7c-0.7,0-1.3,0.2-1.7,0.7
					c-0.5,0.5-0.7,1.1-0.7,1.8C39.2,48.5,39.5,49.1,40,49.5L40,49.5z M40.6,45.9c0.3-0.4,0.6-0.5,1.1-0.5c0.5,0,0.9,0.2,1.1,0.5
					c0.3,0.4,0.4,1,0.4,1.8c0,0.8-0.1,1.4-0.4,1.8c-0.3,0.3-0.6,0.5-1.1,0.5c-0.5,0-0.8-0.2-1.1-0.5c-0.3-0.3-0.4-0.9-0.4-1.8
					C40.2,46.8,40.3,46.2,40.6,45.9L40.6,45.9z M47.6,45.1c-0.5,0-0.9,0.2-1.3,0.5c-0.4,0.3-0.5,0.8-0.5,1.2c0,0.3,0.1,0.7,0.3,0.9
					c0.2,0.3,0.4,0.5,0.8,0.7c-0.7,0.1-1,0.5-1,1c0,0.3,0.1,0.5,0.4,0.6c0.2,0.2,0.8,0.3,1.6,0.3c0.7,0,1.2,0.1,1.4,0.3
					c0.3,0.2,0.4,0.4,0.4,0.8c0,0.4-0.2,0.6-0.5,0.9c-0.3,0.2-0.7,0.3-1.3,0.3c-0.6,0-1.1-0.1-1.4-0.3c-0.3-0.2-0.5-0.5-0.5-0.8
					c0-0.3,0.1-0.6,0.3-0.8c0,0-0.1,0-0.2,0c-0.2,0-0.4,0.1-0.5,0.2c-0.1,0.2-0.2,0.3-0.2,0.6c0,0.4,0.2,0.8,0.6,1.1
					c0.4,0.3,1,0.4,1.7,0.4c0.8,0,1.3-0.2,1.7-0.5c0.4-0.3,0.6-0.7,0.6-1.2c0-0.4-0.1-0.7-0.3-0.9c-0.2-0.3-0.5-0.4-0.8-0.5
					c-0.3-0.1-0.8-0.1-1.4-0.2c-0.6,0-0.9-0.1-1.1-0.1c-0.2-0.1-0.3-0.2-0.3-0.3c0-0.3,0.4-0.5,1.2-0.5c0.8,0,1.3-0.2,1.6-0.6
					c0.3-0.4,0.5-0.8,0.5-1.2c0-0.4-0.1-0.7-0.3-1c0.2-0.2,0.3-0.3,0.5-0.3c0.1,0,0.2,0.1,0.3,0.2c0.1,0.2,0.2,0.2,0.3,0.2
					c0.2,0,0.3-0.1,0.3-0.4c0-0.1,0-0.2-0.1-0.3c-0.1-0.1-0.2-0.2-0.4-0.2c-0.3,0-0.6,0.2-1,0.6C48.7,45.3,48.3,45.1,47.6,45.1
					L47.6,45.1z M46.9,45.8c0.2-0.3,0.4-0.4,0.8-0.4c0.3,0,0.5,0.1,0.7,0.3c0.2,0.2,0.3,0.6,0.3,1.2c0,0.6-0.1,1-0.3,1.2
					c-0.2,0.2-0.4,0.3-0.7,0.3c-0.3,0-0.6-0.1-0.8-0.3c-0.2-0.2-0.3-0.6-0.3-1.1C46.6,46.4,46.7,46,46.9,45.8L46.9,45.8z M52.2,43.1
					c0.1,0.1,0.3,0.2,0.4,0.2s0.3-0.1,0.4-0.2c0.1-0.1,0.2-0.3,0.2-0.4c0-0.2-0.1-0.3-0.2-0.4c-0.1-0.1-0.2-0.2-0.4-0.2
					s-0.3,0.1-0.4,0.2c-0.1,0.1-0.2,0.3-0.2,0.4C52,42.8,52.1,43,52.2,43.1L52.2,43.1z M53,45.1c-0.4,0.1-0.9,0.2-1.5,0.3v0.3h0.2
					c0.2,0,0.4,0,0.4,0c0.1,0,0.2,0.1,0.2,0.2s0.1,0.5,0.1,1v1.4c0,0.5,0,0.9,0,1c0,0.1-0.1,0.2-0.1,0.3c-0.1,0.1-0.3,0.1-0.5,0.1
					h-0.2v0.3h2.5v-0.3h-0.1c-0.2,0-0.4,0-0.5-0.1c-0.1-0.1-0.1-0.2-0.2-0.3c0-0.1,0-0.5,0-1v-3.3H53z M55.5,50.2
					c0.1-0.2,0.1-0.4,0.2-0.5c0.3,0.4,0.7,0.5,1.1,0.5c0.4,0,0.7-0.1,1-0.4c0.3-0.3,0.4-0.6,0.4-1c0-0.3-0.1-0.5-0.2-0.8
					c-0.1-0.3-0.5-0.6-1.2-0.9c-0.4-0.2-0.7-0.4-0.9-0.5c-0.2-0.2-0.2-0.3-0.2-0.5c0-0.2,0.1-0.4,0.2-0.5c0.1-0.1,0.3-0.2,0.5-0.2
					c0.3,0,0.5,0.1,0.8,0.4c0.2,0.3,0.4,0.6,0.4,0.9h0.2v-1.5h-0.2c-0.1,0.2-0.2,0.4-0.2,0.4c-0.3-0.3-0.6-0.5-1-0.5
					c-0.4,0-0.7,0.1-0.9,0.4c-0.2,0.3-0.3,0.6-0.3,0.9c0,0.3,0.1,0.6,0.3,0.8c0.2,0.2,0.5,0.5,1,0.7c0.4,0.2,0.7,0.4,0.9,0.6
					c0.1,0.2,0.2,0.4,0.2,0.6c0,0.2-0.1,0.4-0.2,0.6c-0.1,0.2-0.4,0.3-0.6,0.3c-0.7,0-1.1-0.5-1.4-1.4h-0.2v1.6H55.5z M62.4,45.3H61
					v-1.5h-0.2c-0.1,0.5-0.2,0.8-0.5,1.1c-0.2,0.3-0.5,0.4-0.8,0.4v0.3h0.7v2.7c0,0.6,0,0.9,0.1,1.2c0,0.2,0.2,0.4,0.4,0.6
					c0.2,0.2,0.4,0.2,0.7,0.2c0.2,0,0.5-0.1,0.7-0.2c0.2-0.1,0.4-0.3,0.5-0.6l-0.2-0.1c-0.2,0.3-0.4,0.5-0.7,0.5
					c-0.1,0-0.3,0-0.4-0.1c-0.1-0.1-0.2-0.2-0.2-0.4c0-0.2-0.1-0.5-0.1-0.9v-2.9h1.4V45.3z M64.3,50.1c0.1,0.1,0.3,0.2,0.4,0.2
					c0.2,0,0.3-0.1,0.4-0.2c0.1-0.1,0.2-0.3,0.2-0.4c0-0.2-0.1-0.3-0.2-0.4C65,49.1,64.9,49,64.7,49c-0.2,0-0.3,0.1-0.4,0.2
					c-0.1,0.1-0.2,0.3-0.2,0.4C64.1,49.8,64.2,49.9,64.3,50.1L64.3,50.1z M77.1,48.5c-0.2,0.5-0.6,0.8-1,1c-0.4,0.2-0.8,0.3-1.2,0.3
					c-0.8,0-1.4-0.3-1.9-0.9c-0.5-0.6-0.8-1.5-0.8-2.7c0-1.3,0.2-2.2,0.7-2.9c0.5-0.7,1.1-1,1.9-1c0.6,0,1.2,0.2,1.7,0.6
					c0.5,0.4,0.9,1.2,1,2.2h0.2l-0.1-3h-0.2c0,0.4-0.1,0.7-0.3,1c-0.2-0.3-0.6-0.6-1-0.8c-0.5-0.2-1-0.4-1.5-0.4
					c-0.7,0-1.3,0.2-1.9,0.5c-0.6,0.3-1,0.8-1.3,1.5c-0.3,0.7-0.5,1.4-0.5,2.2c0,1.2,0.3,2.1,1,2.9c0.7,0.7,1.6,1.1,2.7,1.1
					c1,0,1.9-0.4,2.5-1.2c0.2,0.2,0.3,0.5,0.4,0.8h0.2v-2.8h-0.2C77.5,47.5,77.4,48,77.1,48.5L77.1,48.5z M80.4,49.5
					c0.5,0.5,1,0.7,1.7,0.7c0.7,0,1.2-0.2,1.7-0.7c0.5-0.5,0.7-1.1,0.7-1.9c0-0.7-0.2-1.3-0.7-1.8c-0.5-0.5-1-0.7-1.7-0.7
					c-0.7,0-1.3,0.2-1.7,0.7c-0.5,0.5-0.7,1.1-0.7,1.8C79.7,48.5,79.9,49.1,80.4,49.5L80.4,49.5z M81,45.9c0.3-0.4,0.6-0.5,1.1-0.5
					c0.5,0,0.9,0.2,1.1,0.5c0.3,0.4,0.4,1,0.4,1.8c0,0.8-0.1,1.4-0.4,1.8C83,49.8,82.6,50,82.1,50c-0.5,0-0.8-0.2-1.1-0.5
					c-0.3-0.3-0.4-0.9-0.4-1.8C80.6,46.8,80.7,46.2,81,45.9L81,45.9z M89,45.3v0.3h0.1c0.3,0,0.4,0,0.5,0.1c0.1,0.1,0.1,0.2,0.1,0.3
					c0,0.1,0,0.4,0,1V48c0,0.4,0,0.7-0.1,0.9c-0.1,0.2-0.3,0.4-0.5,0.6c-0.3,0.2-0.5,0.3-0.8,0.3c-0.2,0-0.4-0.1-0.5-0.2
					c-0.2-0.1-0.2-0.2-0.3-0.4c0-0.1-0.1-0.4-0.1-0.7v-3.3h-1.5v0.3c0.3,0,0.4,0,0.5,0.1c0.1,0.1,0.2,0.1,0.2,0.3c0,0.1,0,0.5,0,1
					v1.6c0,0.4,0,0.7,0.1,1c0.1,0.2,0.2,0.4,0.5,0.5c0.2,0.1,0.5,0.2,0.8,0.2c0.4,0,0.7-0.1,1-0.3c0.3-0.2,0.6-0.5,0.8-0.8
					c0,0.5,0.1,0.9,0.2,1.1h0.1c0.3-0.1,0.7-0.2,1.2-0.2v-0.3c-0.2,0-0.4,0-0.5-0.1c-0.1-0.1-0.1-0.2-0.2-0.3c0-0.1,0-0.5,0-1v-3.1
					H89z M92.3,45.4v0.3h0.2c0.2,0,0.4,0,0.5,0.1c0.1,0.1,0.1,0.2,0.2,0.3c0,0.1,0,0.5,0,1v4.3c0,0.5,0,0.9,0,1
					c0,0.1-0.1,0.2-0.1,0.3c-0.1,0.1-0.3,0.1-0.5,0.1h-0.2V53h2.4v-0.3c-0.3,0-0.4,0-0.5-0.1C94,52.6,94,52.5,94,52.4
					c0-0.1,0-0.5,0-1v-1.8c0.2,0.2,0.5,0.4,0.7,0.5c0.3,0.1,0.5,0.2,0.8,0.2c0.7,0,1.2-0.3,1.7-0.8c0.4-0.5,0.6-1.1,0.6-1.9
					c0-0.8-0.2-1.4-0.6-1.8c-0.4-0.5-0.9-0.7-1.6-0.7c-0.3,0-0.6,0.1-0.9,0.2c-0.3,0.1-0.5,0.3-0.8,0.6c0-0.3,0-0.6-0.1-0.8h-0.2
					C93.1,45.2,92.7,45.3,92.3,45.4L92.3,45.4z M93.9,46.3c0.2-0.3,0.4-0.5,0.7-0.6c0.2-0.1,0.5-0.2,0.7-0.2c0.4,0,0.8,0.2,1.1,0.5
					c0.3,0.4,0.5,0.9,0.5,1.6c0,0.8-0.2,1.4-0.5,1.8c-0.3,0.4-0.7,0.6-1.1,0.6c-0.2,0-0.5-0.1-0.7-0.2c-0.2-0.1-0.4-0.3-0.6-0.6
					V46.3z M100.5,42c-0.1,0.1-0.3,0.1-0.6,0.2c-0.3,0.1-0.6,0.1-0.8,0.1v0.3c0.3,0,0.5,0.1,0.6,0.2c0.1,0.1,0.1,0.4,0.1,0.9v4.7
					c0,0.6,0,0.9,0,1c0,0.1-0.1,0.2-0.2,0.3c-0.1,0.1-0.3,0.1-0.5,0.1H99v0.3h2.4v-0.3h-0.1c-0.2,0-0.4,0-0.5-0.1
					c-0.1-0.1-0.1-0.2-0.2-0.3c0-0.1,0-0.5,0-1V42H100.5z M106.4,45.7c-0.3-0.4-0.8-0.6-1.4-0.6c-0.6,0-1.2,0.2-1.6,0.7
					c-0.4,0.5-0.6,1.1-0.6,1.9c0,0.5,0.1,1,0.3,1.4c0.2,0.4,0.5,0.7,0.8,0.9c0.3,0.2,0.7,0.3,1.1,0.3c0.4,0,0.8-0.1,1.2-0.3
					s0.6-0.5,0.7-0.9h-0.3c-0.3,0.6-0.8,1-1.4,1c-0.5,0-0.9-0.2-1.1-0.6s-0.4-1.1-0.4-1.9c0-0.1,0-0.3,0-0.5h3.2
					C106.9,46.5,106.7,46,106.4,45.7L106.4,45.7z M103.7,46.7c0.1-0.9,0.5-1.3,1.2-1.3c0.3,0,0.5,0.1,0.7,0.3
					c0.2,0.2,0.3,0.5,0.3,0.8c0,0.1,0,0.1,0,0.2H103.7z M116.5,45.5c0.6,0.1,0.9,0.3,0.9,0.8c0,0.2-0.1,0.4-0.2,0.8
					c-0.1,0.3-0.3,0.7-0.5,1c-0.6-0.9-1.2-1.8-1.9-2.7c1.1-0.6,1.6-1.1,1.6-1.7c0-0.4-0.2-0.7-0.5-0.9c-0.3-0.2-0.7-0.4-1.1-0.4
					c-0.4,0-0.8,0.2-1.1,0.5s-0.4,0.7-0.4,1.1c0,0.5,0.2,1.1,0.7,1.7c-0.7,0.5-1.2,0.9-1.5,1.3c-0.3,0.3-0.4,0.7-0.4,1.2
					c0,0.4,0.1,0.8,0.3,1.1c0.2,0.3,0.5,0.6,0.8,0.8c0.3,0.2,0.7,0.3,1,0.3c0.7,0,1.4-0.4,2.1-1.1c0.5,0.8,1.2,1.1,1.9,1.1
					c0.3,0,0.6-0.1,0.9-0.3c0.3-0.2,0.4-0.5,0.5-0.8h-0.3c-0.2,0.3-0.5,0.5-0.8,0.5c-0.3,0-0.5-0.1-0.7-0.2
					c-0.2-0.2-0.5-0.5-0.9-1.1c0.2-0.2,0.4-0.6,0.6-1.1c0.2-0.6,0.5-1,0.7-1.2c0.2-0.2,0.5-0.4,0.8-0.5v-0.3h-2.4V45.5z M113.9,43.6
					c0-0.3,0.1-0.5,0.2-0.7c0.2-0.2,0.4-0.3,0.6-0.3c0.3,0,0.5,0.1,0.7,0.3c0.2,0.2,0.2,0.4,0.2,0.8c0,0.5-0.4,1-1.1,1.5
					C114.2,44.5,113.9,44,113.9,43.6L113.9,43.6z M116.1,48.9c-0.4,0.5-0.9,0.8-1.4,0.8c-0.5,0-0.9-0.2-1.2-0.6
					c-0.4-0.4-0.6-0.9-0.6-1.4c0-0.3,0.1-0.6,0.3-1c0.2-0.3,0.5-0.6,0.9-0.9C114.6,46.6,115.3,47.6,116.1,48.9L116.1,48.9z
					 M124.1,42.1v0.3h0.1c0.4,0,0.6,0,0.7,0.1c0.1,0.1,0.2,0.2,0.2,0.4c0,0.2,0.1,0.6,0.1,1.2V48c0,0.7,0,1.1-0.1,1.3
					c0,0.2-0.1,0.3-0.2,0.4c-0.1,0.1-0.3,0.1-0.7,0.1h-0.2v0.3h3.5v-0.3h-0.3c-0.3,0-0.6,0-0.7-0.1s-0.2-0.2-0.2-0.4
					c0-0.2,0-0.6,0-1.2v-2h0.7c0.4,0,0.6,0,0.8,0.1c0.1,0.1,0.2,0.2,0.3,0.4c0.1,0.2,0.1,0.5,0.1,0.8h0.3v-2.8h-0.3
					c0,0.5-0.1,0.8-0.2,1c-0.2,0.2-0.5,0.2-0.9,0.2h-0.7v-3.4h1.5c0.5,0,0.8,0,1,0.1c0.2,0.1,0.4,0.2,0.6,0.5
					c0.2,0.3,0.3,0.6,0.3,1.1h0.3l-0.1-2H124.1z M134.7,49.8c-0.1,0-0.2-0.1-0.3-0.2c0-0.1-0.1-0.4-0.1-0.9v-1.9
					c0-0.4,0-0.7-0.1-0.9c-0.1-0.2-0.3-0.4-0.5-0.5c-0.3-0.2-0.6-0.2-1.1-0.2c-0.6,0-1.1,0.1-1.4,0.4c-0.3,0.3-0.5,0.5-0.5,0.7
					c0,0.2,0.1,0.3,0.3,0.3c0.3,0,0.4-0.2,0.5-0.6c0.1-0.4,0.4-0.6,0.9-0.6c0.3,0,0.5,0.1,0.7,0.2c0.2,0.1,0.3,0.2,0.3,0.4
					c0,0.1,0.1,0.4,0.1,0.7v0.2l-0.9,0.4c-0.7,0.3-1.2,0.6-1.5,0.9c-0.4,0.3-0.6,0.6-0.6,1.1c0,0.3,0.1,0.6,0.3,0.7
					c0.2,0.2,0.5,0.3,0.8,0.3c0.2,0,0.5-0.1,0.8-0.2c0.3-0.1,0.6-0.3,1-0.6c0,0.3,0.1,0.5,0.3,0.6c0.1,0.1,0.3,0.2,0.6,0.2
					c0.6,0,0.9-0.3,0.9-1h-0.2C135.1,49.6,134.9,49.8,134.7,49.8L134.7,49.8z M133.5,49c-0.3,0.2-0.5,0.4-0.8,0.5
					c-0.2,0.1-0.4,0.2-0.6,0.2c-0.2,0-0.4-0.1-0.5-0.2c-0.1-0.1-0.2-0.3-0.2-0.6c0-0.6,0.5-1.1,1.4-1.5l0.6-0.3V49z M136.4,45.3v0.3
					c0.3,0,0.4,0,0.5,0.1c0.1,0.1,0.2,0.2,0.2,0.3c0,0.1,0,0.5,0,1v1.4c0,0.6,0,0.9,0,1c0,0.1-0.1,0.2-0.2,0.3
					c-0.1,0.1-0.3,0.1-0.5,0.1v0.3h2.2v-0.3c-0.2,0-0.4,0-0.5-0.1c-0.1-0.1-0.2-0.2-0.2-0.3c0-0.1,0-0.5,0-1v-2
					c0.2-0.3,0.5-0.5,0.7-0.7c0.2-0.2,0.5-0.2,0.7-0.2c0.2,0,0.4,0.1,0.6,0.2c0.2,0.1,0.3,0.3,0.3,0.5c0,0.2,0,0.5,0,0.9v1.3
					c0,0.6,0,0.9,0,1c0,0.1-0.1,0.2-0.2,0.3s-0.3,0.1-0.5,0.1v0.3h2.2v-0.3c-0.2,0-0.4,0-0.5-0.1c-0.1-0.1-0.1-0.2-0.2-0.3
					c0-0.1,0-0.4,0-1v-1.9c0.2-0.3,0.5-0.6,0.7-0.8c0.2-0.2,0.5-0.3,0.7-0.3c0.2,0,0.4,0.1,0.6,0.2c0.1,0.1,0.2,0.3,0.3,0.4
					c0,0.2,0.1,0.4,0.1,0.7v1.6c0,0.6,0,0.9,0,1c0,0.1-0.1,0.2-0.2,0.3c-0.1,0.1-0.3,0.1-0.5,0.1v0.3h2.3v-0.3c-0.3,0-0.5,0-0.5-0.1
					c-0.1-0.1-0.2-0.1-0.2-0.3c0-0.1,0-0.5,0-1V47c0-0.5,0-0.8-0.1-1.1c-0.1-0.2-0.2-0.4-0.4-0.6c-0.2-0.2-0.5-0.3-0.9-0.3
					c-0.3,0-0.6,0.1-0.9,0.3c-0.3,0.2-0.6,0.4-0.9,0.8c-0.1-0.4-0.3-0.6-0.5-0.8c-0.2-0.2-0.5-0.3-0.9-0.3c-0.3,0-0.6,0.1-0.9,0.3
					c-0.3,0.2-0.6,0.4-0.8,0.8c0-0.4-0.1-0.7-0.2-1h-0.1C137.4,45.2,136.9,45.3,136.4,45.3L136.4,45.3z M146.9,43.1
					c0.1,0.1,0.3,0.2,0.4,0.2c0.2,0,0.3-0.1,0.4-0.2c0.1-0.1,0.2-0.3,0.2-0.4c0-0.2-0.1-0.3-0.2-0.4c-0.1-0.1-0.2-0.2-0.4-0.2
					c-0.2,0-0.3,0.1-0.4,0.2c-0.1,0.1-0.2,0.3-0.2,0.4C146.7,42.8,146.8,43,146.9,43.1L146.9,43.1z M147.7,45.1
					c-0.4,0.1-0.9,0.2-1.5,0.3v0.3h0.2c0.2,0,0.4,0,0.4,0c0.1,0,0.2,0.1,0.2,0.2c0,0.1,0.1,0.5,0.1,1v1.4c0,0.5,0,0.9,0,1
					c0,0.1-0.1,0.2-0.1,0.3c-0.1,0.1-0.3,0.1-0.5,0.1h-0.2v0.3h2.5v-0.3h-0.1c-0.2,0-0.4,0-0.5-0.1c-0.1-0.1-0.1-0.2-0.2-0.3
					c0-0.1,0-0.5,0-1v-3.3H147.7z M151.1,42c-0.1,0.1-0.3,0.1-0.6,0.2c-0.3,0.1-0.6,0.1-0.8,0.1v0.3c0.3,0,0.5,0.1,0.6,0.2
					c0.1,0.1,0.1,0.4,0.1,0.9v4.7c0,0.6,0,0.9,0,1c0,0.1-0.1,0.2-0.2,0.3c-0.1,0.1-0.3,0.1-0.5,0.1h-0.2v0.3h2.4v-0.3h-0.1
					c-0.2,0-0.4,0-0.5-0.1c-0.1-0.1-0.1-0.2-0.2-0.3c0-0.1,0-0.5,0-1V42H151.1z M154.6,46.4c-0.1-0.3-0.2-0.5-0.2-0.6
					c0-0.1,0.2-0.2,0.6-0.2v-0.3h-2.1v0.3c0.2,0,0.4,0,0.5,0.1c0.1,0.1,0.2,0.3,0.4,0.6l1.7,3.9l-0.4,1.1c-0.1,0.2-0.1,0.3-0.2,0.4
					c-0.1,0.1-0.2,0.2-0.5,0.3c-0.4,0.2-0.6,0.4-0.6,0.7c0,0.2,0.1,0.3,0.4,0.3c0.2,0,0.3-0.1,0.5-0.3c0.1-0.2,0.3-0.5,0.5-1l2-5.1
					c0.2-0.4,0.3-0.7,0.4-0.8c0.1-0.1,0.3-0.2,0.5-0.2v-0.3h-1.6v0.3c0.4,0,0.6,0.1,0.6,0.3c0,0-0.1,0.3-0.2,0.6l-1.1,2.7
					L154.6,46.4z M163.3,42.9c0.1-0.2,0.3-0.4,0.5-0.4c0.2,0,0.5-0.1,1-0.1h1.1V48c0,0.7,0,1.1-0.1,1.3c0,0.2-0.1,0.3-0.2,0.4
					c-0.1,0.1-0.3,0.1-0.7,0.1h-0.4v0.3h3.8v-0.3h-0.4c-0.3,0-0.6,0-0.7-0.1c-0.1-0.1-0.2-0.2-0.2-0.4c0-0.2,0-0.6,0-1.2v-5.6h1.2
					c0.4,0,0.7,0,0.9,0.1c0.2,0.1,0.3,0.2,0.5,0.4c0.1,0.2,0.3,0.6,0.4,1.1h0.2l0-1.9h-7.3l0,1.9h0.3
					C163,43.5,163.1,43.2,163.3,42.9L163.3,42.9z M173,42h-0.1c-0.4,0.2-0.9,0.2-1.4,0.2v0.3c0.3,0,0.5,0.1,0.6,0.2
					c0.1,0.1,0.1,0.4,0.1,0.9v4.8c0,0.5,0,0.9,0,1c0,0.1-0.1,0.2-0.1,0.3c-0.1,0.1-0.3,0.1-0.5,0.1h-0.1v0.3h2.3v-0.3
					c-0.3,0-0.4,0-0.5-0.1c-0.1-0.1-0.2-0.2-0.2-0.3c0-0.1,0-0.5,0-1v-1.9c0.2-0.4,0.4-0.6,0.6-0.8c0.2-0.2,0.5-0.3,0.8-0.3
					c0.2,0,0.5,0.1,0.6,0.2c0.2,0.1,0.3,0.3,0.3,0.5c0,0.2,0.1,0.5,0.1,0.9v1.4c0,0.5,0,0.8,0,1c0,0.1-0.1,0.2-0.1,0.3
					s-0.3,0.1-0.5,0.1h-0.1v0.3h2.4v-0.3c-0.3,0-0.5,0-0.6-0.1c-0.1-0.1-0.2-0.1-0.2-0.3c0-0.1,0-0.5,0-1v-1.3c0-0.5,0-0.9-0.1-1.2
					c-0.1-0.2-0.2-0.4-0.5-0.6c-0.2-0.2-0.6-0.2-0.9-0.2c-0.3,0-0.6,0.1-0.9,0.2c-0.3,0.2-0.5,0.4-0.8,0.7V42z M181.9,45.7
					c-0.3-0.4-0.8-0.6-1.4-0.6c-0.6,0-1.2,0.2-1.6,0.7c-0.4,0.5-0.6,1.1-0.6,1.9c0,0.5,0.1,1,0.3,1.4c0.2,0.4,0.5,0.7,0.8,0.9
					c0.3,0.2,0.7,0.3,1.1,0.3c0.4,0,0.8-0.1,1.2-0.3s0.6-0.5,0.7-0.9h-0.3c-0.3,0.6-0.8,1-1.4,1c-0.5,0-0.9-0.2-1.1-0.6
					c-0.3-0.4-0.4-1.1-0.4-1.9c0-0.1,0-0.3,0-0.5h3.2C182.4,46.5,182.3,46,181.9,45.7L181.9,45.7z M179.3,46.7
					c0.1-0.9,0.5-1.3,1.2-1.3c0.3,0,0.5,0.1,0.7,0.3c0.2,0.2,0.3,0.5,0.3,0.8c0,0.1,0,0.1,0,0.2H179.3z M185.3,45.1
					c-0.6,0.2-1,0.3-1.4,0.3v0.3h0.1c0.2,0,0.4,0,0.5,0.1c0.1,0.1,0.1,0.2,0.2,0.3c0,0.1,0,0.5,0,1v1.3c0,0.6,0,0.9,0,1
					c0,0.1-0.1,0.2-0.2,0.3c-0.1,0.1-0.3,0.1-0.5,0.1h-0.1v0.3h2.4v-0.3h-0.2c-0.2,0-0.4,0-0.5-0.1c-0.1-0.1-0.1-0.2-0.2-0.3
					c0-0.1,0-0.5,0-1v-0.9c0-0.4,0-0.8,0.1-1c0.1-0.2,0.2-0.5,0.4-0.7c0.2-0.2,0.4-0.3,0.6-0.3c0.1,0,0.2,0.1,0.3,0.3
					c0.1,0.3,0.2,0.4,0.4,0.4c0.1,0,0.2,0,0.3-0.1c0.1-0.1,0.1-0.2,0.1-0.3c0-0.2-0.1-0.3-0.2-0.5c-0.1-0.2-0.3-0.2-0.6-0.2
					c-0.3,0-0.5,0.1-0.8,0.3c-0.3,0.2-0.5,0.5-0.6,0.9C185.5,45.8,185.4,45.4,185.3,45.1L185.3,45.1z M193,49.8
					c-0.1,0-0.2-0.1-0.3-0.2c0-0.1-0.1-0.4-0.1-0.9v-1.9c0-0.4,0-0.7-0.1-0.9c-0.1-0.2-0.3-0.4-0.5-0.5c-0.3-0.2-0.6-0.2-1.1-0.2
					c-0.6,0-1.1,0.1-1.4,0.4c-0.3,0.3-0.5,0.5-0.5,0.7c0,0.2,0.1,0.3,0.3,0.3c0.3,0,0.4-0.2,0.5-0.6c0.1-0.4,0.4-0.6,0.9-0.6
					c0.3,0,0.5,0.1,0.7,0.2c0.2,0.1,0.3,0.2,0.3,0.4c0,0.1,0.1,0.4,0.1,0.7v0.2l-0.9,0.4c-0.7,0.3-1.2,0.6-1.5,0.9
					c-0.4,0.3-0.6,0.6-0.6,1.1c0,0.3,0.1,0.6,0.3,0.7c0.2,0.2,0.5,0.3,0.8,0.3c0.2,0,0.5-0.1,0.8-0.2c0.3-0.1,0.6-0.3,1-0.6
					c0,0.3,0.1,0.5,0.3,0.6c0.1,0.1,0.3,0.2,0.6,0.2c0.6,0,0.9-0.3,0.9-1h-0.2C193.4,49.6,193.2,49.8,193,49.8L193,49.8z M191.8,49
					c-0.3,0.2-0.5,0.4-0.8,0.5c-0.2,0.1-0.4,0.2-0.6,0.2c-0.2,0-0.4-0.1-0.5-0.2c-0.1-0.1-0.2-0.3-0.2-0.6c0-0.6,0.5-1.1,1.4-1.5
					l0.6-0.3V49z M194.5,45.4v0.3h0.2c0.2,0,0.4,0,0.5,0.1c0.1,0.1,0.1,0.2,0.2,0.3c0,0.1,0,0.5,0,1v4.3c0,0.5,0,0.9,0,1
					c0,0.1-0.1,0.2-0.1,0.3c-0.1,0.1-0.3,0.1-0.5,0.1h-0.2V53h2.4v-0.3c-0.3,0-0.4,0-0.5-0.1c-0.1-0.1-0.2-0.2-0.2-0.3
					c0-0.1,0-0.5,0-1v-1.8c0.2,0.2,0.5,0.4,0.7,0.5c0.3,0.1,0.5,0.2,0.8,0.2c0.7,0,1.2-0.3,1.7-0.8c0.4-0.5,0.6-1.1,0.6-1.9
					c0-0.8-0.2-1.4-0.6-1.8c-0.4-0.5-0.9-0.7-1.6-0.7c-0.3,0-0.6,0.1-0.9,0.2c-0.3,0.1-0.5,0.3-0.8,0.6c0-0.3,0-0.6-0.1-0.8h-0.2
					C195.3,45.2,194.8,45.3,194.5,45.4L194.5,45.4z M196.1,46.3c0.2-0.3,0.4-0.5,0.7-0.6s0.5-0.2,0.7-0.2c0.4,0,0.8,0.2,1.1,0.5
					c0.3,0.4,0.5,0.9,0.5,1.6c0,0.8-0.2,1.4-0.5,1.8c-0.3,0.4-0.7,0.6-1.1,0.6c-0.2,0-0.5-0.1-0.7-0.2c-0.2-0.1-0.4-0.3-0.6-0.6
					V46.3z M202.5,46.4c-0.1-0.3-0.2-0.5-0.2-0.6c0-0.1,0.2-0.2,0.6-0.2v-0.3h-2.1v0.3c0.2,0,0.4,0,0.5,0.1c0.1,0.1,0.2,0.3,0.4,0.6
					l1.7,3.9l-0.4,1.1c-0.1,0.2-0.1,0.3-0.2,0.4c-0.1,0.1-0.2,0.2-0.5,0.3c-0.4,0.2-0.6,0.4-0.6,0.7c0,0.2,0.1,0.3,0.4,0.3
					c0.2,0,0.3-0.1,0.5-0.3c0.1-0.2,0.3-0.5,0.5-1l2-5.1c0.2-0.4,0.3-0.7,0.4-0.8c0.1-0.1,0.3-0.2,0.5-0.2v-0.3h-1.6v0.3
					c0.4,0,0.6,0.1,0.6,0.3c0,0-0.1,0.3-0.2,0.6l-1.1,2.7L202.5,46.4z"/>
			</g>
		</g>
	</g>
</g>
<image style="overflow:visible;" width="30" height="29" xlink:href="../images/Page 1.png"  transform="matrix(1 0 0 1 128 0)">
</image>
</svg>
