<?xml version="1.0" encoding="UTF-8"?>
<svg width="287px" height="48px" viewBox="0 0 287 48" version="1.1" xmlns="http://www.w3.org/2000/svg" xmlns:xlink="http://www.w3.org/1999/xlink">
    <!-- Generator: Sketch 46.2 (44496) - http://www.bohemiancoding.com/sketch -->
    <title>Page 1</title>
    <desc>Created with Sketch.</desc>
    <defs>
        <polygon id="path-1" points="0 11 206 11 206 0 6.1682176e-15 0"></polygon>
    </defs>
    <g id="Symbols" stroke="none" stroke-width="1" fill="none" fill-rule="evenodd">
        <g id="Header" transform="translate(-362.000000, 16.000000)">
            <g id="Page-1" transform="translate(362.000000, -16.000000)">
                <path d="M14.722398,17.52973 L16.9244695,22.6931232 L20.3849813,22.6931232 L10.3811373,0.0955661217 L0,22.6931232 L3.39762954,22.6931232 L5.75690656,17.52973 L14.722398,17.52973 Z M13.4325166,14.5018566 L7.07822905,14.5018566 L10.3182551,7.29850972 L13.4325166,14.5018566 Z M37.8125085,22.6931232 L40.9896523,22.6931232 L40.9896523,7.80859893 L56.2783882,24 L56.2783882,1.43389506 L53.1012444,1.43389506 L53.1012444,16.1909978 L37.8125085,0 L37.8125085,22.6931232 Z M87.1097769,11.63326 L87.1097769,14.6611334 L92.3317867,14.6611334 C92.0484187,17.6571515 89.2175251,20.0793696 86.0714244,20.0793696 C81.9192083,20.0793696 78.4586965,16.4462441 78.4586965,12.1114938 C78.4586965,7.58561132 81.8563261,4.04764865 86.2286299,4.04764865 C88.8398338,4.04764865 90.7589353,5.09927922 92.5833155,7.55375594 L94.8482692,5.35452545 C92.2374634,2.32665199 89.6577006,1.0197752 86.3233513,1.0197752 C80.1258712,1.0197752 75.2815527,5.8960668 75.2815527,12.1114938 C75.2815527,18.1672407 80.0944301,23.1072431 85.9771011,23.1072431 C89.1228038,23.1072431 92.1113009,21.609234 93.9360791,19.0914498 C95.2259605,17.3067424 95.7919004,15.3942103 95.7919004,12.6211798 L95.7919004,11.63326 L87.1097769,11.63326 Z M126.117445,4.46217174 L126.117445,1.43389506 L114.54075,1.43389506 L114.54075,22.6931232 L126.117445,22.6931232 L126.117445,19.6652498 L117.718292,19.6652498 L117.718292,12.5893244 L125.865917,12.5893244 L125.865917,9.56145097 L117.718292,9.56145097 L117.718292,4.46217174 L126.117445,4.46217174 Z M148.232484,1.43389506 L145.05534,1.43389506 L145.05534,22.6931232 L154.398125,22.6931232 L154.398125,19.6652498 L148.232484,19.6652498 L148.232484,1.43389506 Z M185.639442,17.52973 L187.841513,22.6931232 L191.302025,22.6931232 L181.298181,0.0955661217 L170.917044,22.6931232 L174.314673,22.6931232 L176.67395,17.52973 L185.639442,17.52973 Z M184.34956,14.5018566 L177.995273,14.5018566 L181.235299,7.29850972 L184.34956,14.5018566 Z M217.506397,2.70891648 L217.506397,1.43389506 L209.044361,1.43389506 L209.044361,22.6931232 L210.397125,22.6931232 L210.397125,11.6969707 L217.31775,11.6969707 L217.31775,10.4223525 L210.397125,10.4223525 L210.397125,2.70891648 L217.506397,2.70891648 Z M246.321575,1.14719669 C240.376022,1.14719669 235.43738,6.11945765 235.43738,12.0796384 C235.43738,18.0716746 240.376022,23.0435323 246.321575,23.0435323 C252.235687,23.0435323 257.174727,18.0716746 257.174727,12.0796384 C257.174727,6.11945765 252.235687,1.14719669 246.321575,1.14719669 L246.321575,1.14719669 Z M246.321575,2.45407349 C251.480702,2.45407349 255.759081,6.82067911 255.759081,12.1114938 C255.759081,17.3704531 251.480702,21.7370588 246.321575,21.7370588 C241.131006,21.7370588 236.853026,17.3704531 236.853026,12.1114938 C236.853026,6.82067911 241.131006,2.45407349 246.321575,2.45407349 L246.321575,2.45407349 Z M279.638801,11.8243922 L273.913336,22.6931232 L275.454746,22.6931232 L280.425227,13.2586905 L285.45859,22.6931232 L287,22.6931232 L281.211652,11.8243922 L286.71703,1.43389506 L285.144179,1.43389506 L280.425227,10.3900939 L275.675232,1.43389506 L274.133821,1.43389506 L279.638801,11.8243922 Z" id="Fill-1" fill="#0D3F4A"></path>
                <g id="Group-5" transform="translate(37.000000, 37.000000)">
                    <mask id="mask-2" fill="white">
                        <use xlink:href="#path-1"></use>
                    </mask>
                    <g id="Clip-4"></g>
                    <path d="M3.08175306,4.33592233 C3.94724821,4.33592233 4.55231353,4.25048544 4.89564686,4.07870275 C5.23984829,3.90737451 5.50331648,3.65651725 5.68735356,3.32476761 C5.8709566,2.99347242 5.96340919,2.61218756 5.96340919,2.17954968 C5.96340919,1.68101632 5.82841972,1.2683743 5.55930889,0.940714728 C5.28976401,0.613509605 4.94426043,0.385829374 4.5223641,0.257219583 C4.10090181,0.128609791 3.49974294,0.0645321215 2.71932153,0.0645321215 C2.295689,0.0645321215 1.70494732,0.0790745714 0.947096502,0.108613923 L0,0.146333402 L0,0.414459822 L0.138895912,0.414459822 C0.521293721,0.414459822 0.770872314,0.449907044 0.885895491,0.519438133 C1.00091867,0.589878124 1.07514117,0.716215658 1.108563,0.898905185 C1.14241888,1.08204916 1.15891277,1.48832886 1.15891277,2.11819872 L1.15891277,5.99921504 C1.15891277,6.66044206 1.14241888,7.08171865 1.108563,7.26259037 C1.07514117,7.44346209 0.996144121,7.57616195 0.87157185,7.66205329 C0.747433628,7.74749019 0.52346397,7.79066309 0.200096924,7.79066309 L0,7.79066309 L0,8.05924396 L3.46067847,8.05924396 L3.46067847,7.79066309 L3.20979772,7.79066309 C2.87210704,7.79066309 2.64119258,7.74385458 2.51922461,7.65069201 C2.39638854,7.55752944 2.32086389,7.41392274 2.2930847,7.22168973 C2.26487147,7.02900227 2.25141593,6.62135922 2.25141593,5.99921504 L2.25141593,4.33592233 L3.08175306,4.33592233 Z M2.25141593,0.368105763 C2.38510324,0.352199959 2.57825537,0.344474282 2.83087231,0.344474282 C3.51840708,0.344474282 4.01539402,0.497624458 4.32139907,0.803924809 C4.62827223,1.11022516 4.78192583,1.59148936 4.78192583,2.24680851 C4.78192583,2.67626523 4.69251159,3.03709977 4.51411715,3.32976658 C4.33572271,3.62243338 4.1130552,3.81512084 3.84524652,3.90646561 C3.57787189,3.99826482 3.22629161,4.04416443 2.79180784,4.04416443 L2.25141593,4.04416443 L2.25141593,0.368105763 Z M7.41183312,8.21057633 C7.47477033,7.99289403 7.55680573,7.8252014 7.65707122,7.70886181 C7.98391066,8.07060525 8.35719343,8.25147697 8.77735356,8.25147697 C9.17494311,8.25147697 9.50438685,8.12150382 9.76655289,7.86019417 C10.0287189,7.59979343 10.1598019,7.26122702 10.1598019,6.84494939 C10.1598019,6.58091303 10.0890518,6.30460649 9.94798567,6.0164842 C9.80605141,5.73290642 9.42018121,5.44069407 8.7882048,5.14121049 C8.36847872,4.94306961 8.0846102,4.76583351 7.93573114,4.60995662 C7.78294564,4.45862425 7.70698694,4.27775253 7.70698694,4.06734146 C7.70698694,3.87692625 7.77556679,3.70968808 7.91316056,3.56608139 C8.05075432,3.42202024 8.23131901,3.34930799 8.45398651,3.34930799 C8.74393173,3.34930799 8.99524652,3.47700888 9.20923304,3.73195621 C9.4227855,3.98644908 9.56689001,4.29138608 9.64111252,4.64540384 L9.84728614,4.64540384 L9.84728614,3.16843627 L9.64111252,3.16843627 C9.55169827,3.39475315 9.47921197,3.53654204 9.4236536,3.59471184 C9.16322377,3.25614542 8.83508217,3.0875439 8.43749263,3.0875439 C8.04684787,3.0875439 7.74388116,3.23024169 7.5285925,3.51609172 C7.31286979,3.80194175 7.20522545,4.10278868 7.20522545,4.41772361 C7.20522545,4.74856435 7.30592499,5.02623425 7.50645596,5.25209667 C7.70698694,5.48159471 8.03773283,5.71518281 8.49869364,5.95240653 C8.93708386,6.1778145 9.23223767,6.37050196 9.38458913,6.53001446 C9.53346818,6.68952696 9.60725664,6.89403016 9.60725664,7.14261516 C9.60725664,7.35666185 9.53824273,7.55343937 9.39847872,7.73203883 C9.25914876,7.91109275 9.04820059,8.00016526 8.76606827,8.00016526 C8.11542773,8.00016526 7.66445006,7.5475315 7.41183312,6.64135509 L7.19437421,6.64135509 L7.19437421,8.21057633 L7.41183312,8.21057633 Z M12.9294732,4.35864491 C12.7840666,4.0359843 12.7115803,3.8455691 12.7115803,3.78694485 C12.7115803,3.63924809 12.8956174,3.55971907 13.2628234,3.54790333 L13.2628234,3.27977691 L11.1672314,3.27977691 L11.1672314,3.54790333 C11.4089971,3.54790333 11.5800126,3.59334848 11.6802781,3.68242099 C11.7805436,3.77194794 11.9068521,3.98599463 12.0596376,4.32456104 L13.7706616,8.17512911 L13.3335735,9.3103491 C13.259351,9.50485437 13.1838264,9.63891758 13.1078677,9.71344763 C13.031909,9.78752324 12.8808597,9.87659574 12.6542857,9.98202851 C12.2688496,10.1656269 12.0761315,10.3896716 12.0761315,10.6550713 C12.0761315,10.8850238 12.1967973,11 12.438563,11 C12.6169574,11 12.7805942,10.9109275 12.9294732,10.7341458 C13.0783523,10.5569097 13.2493679,10.2228878 13.44252,9.7316257 L15.4812516,4.59268746 C15.6522672,4.16095848 15.7950695,3.88192522 15.9109608,3.75558769 C16.025984,3.62925015 16.2078508,3.55971907 16.4569954,3.54790333 L16.4569954,3.27977691 L14.8514454,3.27977691 L14.8514454,3.54790333 C15.266397,3.55608345 15.4734387,3.65742615 15.4734387,3.85193142 C15.4734387,3.89510432 15.3970459,4.11142326 15.2451285,4.50043379 L14.1799705,7.1544309 L12.9294732,4.35864491 Z M19.7870249,7.94199546 C19.2396882,7.94199546 18.8308133,7.73022103 18.5608344,7.30621772 C18.2912895,6.88221442 18.1563,6.29460855 18.1563,5.54340012 C18.1563,4.81673208 18.2813064,4.27184466 18.5321871,3.90964677 C18.7830678,3.54790333 19.1572187,3.36748606 19.6555078,3.36748606 C19.9337337,3.36748606 20.1216772,3.41202231 20.2180362,3.50154927 C20.3113569,3.59107622 20.3799368,3.74831646 20.4246439,3.97417889 C20.4802023,4.27366247 20.6308175,4.42363148 20.8760556,4.42363148 C20.9910788,4.42363148 21.0796249,4.38045858 21.140826,4.29502169 C21.202027,4.2095848 21.2324105,4.11778558 21.2324105,4.0209874 C21.2324105,3.76058666 21.0670375,3.53926875 20.7362916,3.35839703 C20.4059798,3.17797976 20.0435483,3.0875439 19.6498651,3.0875439 C18.9957522,3.0875439 18.4288833,3.33022103 17.9496924,3.8164842 C17.4700674,4.30274737 17.230906,4.93716174 17.230906,5.71927288 C17.230906,6.48138814 17.4531395,7.09398885 17.8971724,7.55752944 C18.3412052,8.02016112 18.8885419,8.25147697 19.5391825,8.25147697 C20.5500843,8.25147697 21.1820607,7.79838876 21.4346776,6.8917579 L21.1950822,6.8917579 C20.9936831,7.59206775 20.5244753,7.94199546 19.7870249,7.94199546 L19.7870249,7.94199546 Z M24.1192752,0.0349927701 L24.0020818,0.0349927701 C23.6192499,0.198595332 23.1396249,0.280396612 22.564075,0.280396612 L22.564075,0.548977484 C22.8943869,0.548977484 23.1035988,0.612600702 23.1912769,0.741210494 C23.2780868,0.869820285 23.3219258,1.17521173 23.3219258,1.65738484 L23.3219258,6.41958273 C23.3219258,6.95219996 23.3158491,7.27395166 23.3028276,7.38529229 C23.2898062,7.49572402 23.2433628,7.59115885 23.1630636,7.67068787 C23.0836325,7.75067135 22.9095786,7.79066309 22.642204,7.79066309 L22.5250105,7.79066309 L22.5250105,8.05924396 L24.8437042,8.05924396 L24.8437042,7.79066309 C24.5871808,7.79066309 24.4109566,7.75839703 24.3141635,7.6938649 C24.2178045,7.63024169 24.160944,7.53617021 24.1444501,7.41119603 C24.1275221,7.28713076 24.1192752,6.95629002 24.1192752,6.41958273 L24.1192752,4.50543276 C24.2937632,4.15096055 24.4960303,3.88556083 24.7269448,3.70877918 C24.9569912,3.53154307 25.2169869,3.44337947 25.5069322,3.44337947 C25.7556426,3.44337947 25.9631184,3.50518488 26.1284914,3.62970461 C26.2934303,3.75422433 26.3984703,3.91191902 26.4436115,4.10278868 C26.4874505,4.29320388 26.5100211,4.58677959 26.5100211,4.98397025 L26.5100211,6.41958273 C26.5100211,6.94856435 26.5039444,7.26849824 26.4909229,7.37892997 C26.4779014,7.49027061 26.431024,7.58615988 26.3511589,7.66796117 C26.2712937,7.74976245 26.0955036,7.79066309 25.8246566,7.79066309 L25.7187484,7.79066309 L25.7187484,8.05924396 L28.0760725,8.05924396 L28.0760725,7.79066309 C27.8052255,7.79066309 27.6194522,7.76203264 27.5187526,7.7061351 C27.4184871,7.64932865 27.3581542,7.56116505 27.3377539,7.44073539 C27.3173536,7.31985127 27.3069364,6.97946705 27.3069364,6.41958273 L27.3069364,5.10030985 C27.3069364,4.56360256 27.2700421,4.17550093 27.1953856,3.93645941 C27.1211631,3.69650899 26.9609987,3.4956414 26.7135904,3.33203883 C26.466182,3.16843627 26.1549684,3.0875439 25.7799494,3.0875439 C25.4492035,3.0875439 25.1453687,3.16843627 24.8688791,3.33203883 C24.5919553,3.4956414 24.3419427,3.74059079 24.1192752,4.06734146 L24.1192752,0.0349927701 Z M30.1395449,7.5484404 C30.6126591,8.01743441 31.1851707,8.25147697 31.8570796,8.25147697 C32.5294227,8.25147697 33.1023683,8.02107003 33.5776528,7.55980169 C34.0520691,7.09898781 34.2899284,6.46548234 34.2899284,5.66064863 C34.2899284,4.93307168 34.0564096,4.32228878 33.588504,3.82784549 C33.1210324,3.33431109 32.5437463,3.0875439 31.8570796,3.0875439 C31.1743194,3.0875439 30.5992035,3.33294774 30.1312979,3.82511878 C29.6638264,4.31728982 29.4303076,4.92943607 29.4303076,5.66064863 C29.4303076,6.45048544 29.6664307,7.0794464 30.1395449,7.5484404 L30.1395449,7.5484404 Z M30.7424399,3.8896509 C31.0006995,3.53381533 31.3731142,3.35567032 31.8596839,3.35567032 C32.3505942,3.35567032 32.7238769,3.53472423 32.9804003,3.89237761 C33.2364897,4.25048544 33.3645343,4.84945259 33.3645343,5.68973353 C33.3645343,6.53774014 33.2356216,7.13216278 32.977362,7.47209254 C32.7191024,7.81293121 32.3466877,7.9828961 31.8596839,7.9828961 C31.3839654,7.9828961 31.0145891,7.81293121 30.7506869,7.47209254 C30.4867847,7.13216278 30.3552676,6.53774014 30.3552676,5.68973353 C30.3552676,4.84536253 30.4841804,4.24548647 30.7424399,3.8896509 L30.7424399,3.8896509 Z M37.0201011,0.0349927701 C36.905512,0.0895269572 36.6954319,0.144061144 36.390295,0.198595332 C36.084724,0.253129519 35.8195196,0.280396612 35.5933797,0.280396612 L35.5933797,0.548977484 C35.9241256,0.548977484 36.1320354,0.613509605 36.2175432,0.743937203 C36.303485,0.874819252 36.3460219,1.19066309 36.3460219,1.69237761 L36.3460219,6.41958273 C36.3460219,6.97128692 36.3369069,7.30621772 36.3182427,7.42255732 C36.2991445,7.53980583 36.2431521,7.63024169 36.1485293,7.6938649 C36.0534724,7.75839703 35.8941761,7.79066309 35.6715086,7.79066309 L35.5152507,7.79066309 L35.5152507,8.05924396 L37.9515718,8.05924396 L37.9515718,7.79066309 L37.8174505,7.79066309 C37.5795912,7.79066309 37.4142183,7.75567032 37.3217657,7.68523032 C37.228445,7.61569924 37.1754909,7.51435654 37.1624694,7.38165668 C37.149448,7.24986573 37.1429372,6.92902293 37.1429372,6.41958273 L37.1429372,0.0349927701 L37.0201011,0.0349927701 Z M39.9534092,7.5484404 C40.4265234,8.01743441 40.999035,8.25147697 41.670944,8.25147697 C42.3424189,8.25147697 42.9162326,8.02107003 43.390649,7.55980169 C43.8659334,7.09898781 44.1037927,6.46548234 44.1037927,5.66064863 C44.1037927,4.93307168 43.8698399,4.32228878 43.4023683,3.82784549 C42.9344627,3.33431109 42.3576106,3.0875439 41.670944,3.0875439 C40.9881837,3.0875439 40.4130678,3.33294774 39.9451622,3.82511878 C39.4776907,4.31728982 39.2433038,4.92943607 39.2433038,5.66064863 C39.2433038,6.45048544 39.480295,7.0794464 39.9534092,7.5484404 L39.9534092,7.5484404 Z M40.5558702,3.8896509 C40.8141298,3.53381533 41.1869785,3.35567032 41.6735483,3.35567032 C42.1640244,3.35567032 42.5377413,3.53472423 42.7938306,3.89237761 C43.050354,4.25048544 43.1783987,4.84945259 43.1783987,5.68973353 C43.1783987,6.53774014 43.0494859,7.13216278 42.7912263,7.47209254 C42.5329667,7.81293121 42.160118,7.9828961 41.6735483,7.9828961 C41.1978298,7.9828961 40.8284534,7.81293121 40.5645512,7.47209254 C40.300649,7.13216278 40.1686979,6.53774014 40.1686979,5.68973353 C40.1686979,4.84536253 40.2980447,4.24548647 40.5558702,3.8896509 L40.5558702,3.8896509 Z M47.6308807,3.0875439 C47.1295533,3.0875439 46.6955036,3.25750878 46.3295997,3.59743855 C45.9636957,3.93827722 45.7805268,4.35182813 45.7805268,4.83763685 C45.7805268,5.18392894 45.869941,5.49750052 46.0483354,5.77744268 C46.2271639,6.05738484 46.4932364,6.30642429 46.8465529,6.52410659 C46.1655289,6.65635199 45.8252339,6.97764925 45.8252339,7.48708944 C45.8252339,7.7520347 45.9437295,7.96744474 46.1815887,8.13513737 C46.419448,8.30601115 46.9381374,8.40917166 47.7372229,8.44416443 C48.4321365,8.47506713 48.9147998,8.56868416 49.1860809,8.72410659 C49.457362,8.88361909 49.5927855,9.15810783 49.5927855,9.54711836 C49.5927855,9.90068168 49.4413021,10.1915307 49.1387695,10.4196654 C48.8358028,10.6468911 48.4130383,10.760504 47.8709102,10.760504 C47.2615044,10.760504 46.8031479,10.6491634 46.4967088,10.4255732 C46.1902697,10.2015286 46.0370501,9.91885974 46.0370501,9.57665772 C46.0370501,9.2803553 46.1520733,9.00041314 46.3825537,8.73592233 C46.3343742,8.71638091 46.280118,8.70683743 46.2206532,8.70683743 C46.0018921,8.70683743 45.8326127,8.78227639 45.7136831,8.93451766 C45.5947535,9.08585003 45.5352887,9.2803553 45.5352887,9.51757901 C45.5352887,9.94612683 45.7436325,10.2996901 46.1594522,10.5796323 C46.5757059,10.8600289 47.1295533,11 47.8205605,11 C48.5745048,11 49.152225,10.8423053 49.553721,10.5273704 C49.954783,10.2124354 50.155748,9.79752117 50.155748,9.28444536 C50.155748,8.91861186 50.0576528,8.60367693 49.8601601,8.33918612 C49.6635356,8.07469531 49.3996334,7.89836811 49.0688875,7.81065895 C48.7381416,7.72340426 48.2663295,7.66432555 47.6534513,7.63296839 C47.092225,7.60206569 46.7241509,7.55525718 46.5496629,7.49299731 C46.3712684,7.43482751 46.2822882,7.33348482 46.2822882,7.18942367 C46.2822882,6.88221442 46.6764054,6.71497624 47.4637716,6.68770915 C48.2216224,6.66044206 48.7602781,6.46548234 49.0801728,6.1037389 C49.3996334,5.74653997 49.5593637,5.33389795 49.5593637,4.86672175 C49.5593637,4.50906837 49.4625706,4.17095641 49.2694185,3.85147697 C49.4408681,3.64924602 49.5962579,3.54790333 49.7377581,3.54790333 C49.8267383,3.54790333 49.9122461,3.62197893 49.9938475,3.76967569 C50.0836957,3.92918818 50.1891698,4.00917166 50.3120059,4.00917166 C50.5346734,4.00917166 50.6462242,3.88101632 50.6462242,3.62425119 C50.6462242,3.50336707 50.5967425,3.39248089 50.4982132,3.29113819 C50.400118,3.19024995 50.2616561,3.13980583 50.0836957,3.13980583 C49.7603287,3.13980583 49.4408681,3.32658542 49.1248799,3.7001446 C48.7494269,3.29113819 48.2511378,3.0875439 47.6308807,3.0875439 L47.6308807,3.0875439 Z M46.8730299,3.7583144 C47.0436115,3.48973353 47.3005689,3.35567032 47.642166,3.35567032 C47.9134471,3.35567032 48.156515,3.46428424 48.3722377,3.68242099 C48.5875263,3.90055774 48.6951707,4.29729395 48.6951707,4.87262962 C48.6951707,5.44432968 48.5944711,5.84651931 48.3917699,6.07783516 C48.1895027,6.309151 47.9468689,6.42503615 47.6647366,6.42503615 C47.3595997,6.42503615 47.1087189,6.3082421 46.9120944,6.07510845 C46.7154699,5.84152035 46.6165065,5.47386904 46.6165065,4.97170006 C46.6165065,4.43135716 46.7024484,4.02644082 46.8730299,3.7583144 L46.8730299,3.7583144 Z M52.181024,1.08568478 C52.294745,1.20611444 52.4310367,1.2665565 52.590767,1.2665565 C52.7504973,1.2665565 52.8859208,1.20611444 52.9979056,1.08568478 C53.1094564,0.965255113 53.1650147,0.819376162 53.1650147,0.648047924 C53.1650147,0.48080975 53.1094564,0.336748606 52.9979056,0.215864491 C52.8859208,0.0954348275 52.7504973,0.0349927701 52.590767,0.0349927701 C52.4310367,0.0349927701 52.294745,0.0954348275 52.181024,0.215864491 C52.067737,0.336748606 52.0108765,0.48080975 52.0108765,0.648047924 C52.0108765,0.819376162 52.067737,0.965255113 52.181024,1.08568478 L52.181024,1.08568478 Z M52.9640497,3.0875439 C52.6003161,3.22297046 52.0868352,3.32658542 51.4257775,3.39657096 L51.4257775,3.66515183 L51.5763928,3.66515183 C51.7847366,3.66515183 51.9301433,3.68014873 52.0139149,3.71150589 C52.0972524,3.74240859 52.1645301,3.82057426 52.2144458,3.94509399 C52.2643616,4.06961372 52.2899705,4.41181574 52.2899705,4.97170006 L52.2899705,6.41958273 C52.2899705,6.95219996 52.2830257,7.27395166 52.2700042,7.38529229 C52.2569827,7.49572402 52.2109735,7.59115885 52.1306743,7.67068787 C52.0512432,7.75067135 51.8793595,7.79066309 51.6154572,7.79066309 L51.4257775,7.79066309 L51.4257775,8.05924396 L53.8838011,8.05924396 L53.8838011,7.79066309 L53.7666077,7.79066309 C53.5287484,7.79066309 53.3638095,7.75567032 53.2704888,7.68523032 C53.1780362,7.61569924 53.12378,7.51435654 53.1094564,7.38165668 C53.0942646,7.24986573 53.0868858,6.92902293 53.0868858,6.41958273 L53.0868858,3.0875439 L52.9640497,3.0875439 Z M55.4663464,8.21057633 C55.5292836,7.99289403 55.610885,7.8252014 55.7111504,7.70886181 C56.0379899,8.07060525 56.4112727,8.25147697 56.8314328,8.25147697 C57.2290223,8.25147697 57.5593342,8.12150382 57.8210662,7.86019417 C58.0827981,7.59979343 58.2138812,7.26122702 58.2138812,6.84494939 C58.2138812,6.58091303 58.1431311,6.30460649 58.0020649,6.0164842 C57.8605647,5.73290642 57.4742604,5.44069407 56.8427181,5.14121049 C56.422992,4.94306961 56.1386894,4.76583351 55.9898104,4.60995662 C55.837893,4.45862425 55.7615002,4.27775253 55.7615002,4.06734146 C55.7615002,3.87692625 55.8300801,3.70968808 55.9672398,3.56608139 C56.1048335,3.42202024 56.2853982,3.34930799 56.5080657,3.34930799 C56.798011,3.34930799 57.0497598,3.47700888 57.2633123,3.73195621 C57.4768647,3.98644908 57.6209692,4.29138608 57.6956258,4.64540384 L57.9017994,4.64540384 L57.9017994,3.16843627 L57.6956258,3.16843627 C57.6066456,3.39475315 57.5337252,3.53654204 57.4777328,3.59471184 C57.2181711,3.25614542 56.8891614,3.0875439 56.4915718,3.0875439 C56.1013611,3.0875439 55.7988285,3.23024169 55.5831058,3.51609172 C55.3678171,3.80194175 55.2601728,4.10278868 55.2601728,4.41772361 C55.2601728,4.74856435 55.3600042,5.02623425 55.5609692,5.25209667 C55.7615002,5.48159471 56.0922461,5.71518281 56.5527729,5.95240653 C56.9911631,6.1778145 57.2867509,6.37050196 57.4391024,6.53001446 C57.5879815,6.68952696 57.662204,6.89403016 57.662204,7.14261516 C57.662204,7.35666185 57.592322,7.55343937 57.452992,7.73203883 C57.313662,7.91109275 57.1027139,8.00016526 56.8205815,8.00016526 C56.169941,8.00016526 55.7185293,7.5475315 55.4663464,6.64135509 L55.2484534,6.64135509 L55.2484534,8.21057633 L55.4663464,8.21057633 Z M62.4098399,3.27386904 L61.0330341,3.27386904 L61.0330341,1.77736005 L60.8550737,1.77736005 C60.7882301,2.24771741 60.6341424,2.61400537 60.3932448,2.87440611 C60.1523472,3.13480686 59.8801981,3.26887007 59.5754952,3.2770502 L59.5754952,3.54244991 L60.2361188,3.54244991 L60.2361188,6.2500723 C60.2361188,6.80632101 60.2612937,7.19533154 60.3116435,7.4171039 C60.3615592,7.63887627 60.4878677,7.83247263 60.6905689,7.99743855 C60.8928361,8.16285891 61.128091,8.2455691 61.3954657,8.2455691 C61.6259461,8.2455691 61.8533881,8.18058252 62.0782259,8.05015493 C62.3030636,7.91972733 62.4732111,7.72613096 62.5882343,7.46936583 L62.4098399,7.3589341 C62.2132153,7.6779591 61.9809987,7.8374716 61.7131901,7.8374716 C61.5760303,7.8374716 61.4466835,7.79066309 61.3260177,7.69750052 C61.2053519,7.60342904 61.1263548,7.48027267 61.0894606,7.32666804 C61.0516983,7.17306342 61.0330341,6.87448874 61.0330341,6.43094402 L61.0330341,3.54244991 L62.4098399,3.54244991 L62.4098399,3.27386904 Z M64.2818963,8.06197067 C64.3969195,8.1883082 64.5379857,8.25147697 64.7059629,8.25147697 C64.8691656,8.25147697 65.0102318,8.19012601 65.1287273,8.06787854 C65.248091,7.94517662 65.3075558,7.79657096 65.3075558,7.62115265 C65.3075558,7.44982442 65.2493932,7.30349101 65.1321997,7.18078909 C65.0150063,7.05808717 64.872638,6.99719066 64.7059629,6.99719066 C64.5418921,6.99719066 64.4016941,7.05808717 64.2845006,7.18078909 C64.1677413,7.30349101 64.1091445,7.44982442 64.1091445,7.62115265 C64.1091445,7.78839083 64.1664391,7.93563313 64.2818963,8.06197067 L64.2818963,8.06197067 Z M77.1414876,6.51547201 C76.8940792,7.0071886 76.5589928,7.35666185 76.1357944,7.5625284 C75.7121618,7.76930386 75.2976443,7.87246437 74.8926759,7.87246437 C74.1343911,7.87246437 73.5006785,7.55616608 72.9919722,6.92402396 C72.4828319,6.29188184 72.2280447,5.38206982 72.2280447,4.19595125 C72.2280447,2.94348275 72.4615634,1.9804999 72.9277328,1.30745714 C73.3943363,0.634414377 74.0228403,0.297665772 74.814547,0.297665772 C75.4612811,0.297665772 76.0416056,0.505804586 76.5563885,0.921627763 C77.0711715,1.33745094 77.4119005,2.07911589 77.5790097,3.1457137 L77.8186051,3.1457137 L77.7517615,0.146333402 L77.5069574,0.146333402 C77.4735356,0.500351167 77.3776106,0.842553191 77.2196165,1.17293948 C76.9930426,0.877545962 76.6501433,0.608056187 76.1909187,0.364470151 C75.7316941,0.121793018 75.2195154,0 74.6543826,0 C73.9703203,0 73.3422503,0.167238174 72.7701728,0.502168973 C72.1976612,0.836645321 71.7514581,1.34881223 71.4319975,2.0395786 C71.1116688,2.73034497 70.9519385,3.4665565 70.9519385,4.24821318 C70.9519385,5.43887627 71.2987442,6.39595125 71.9919216,7.11989258 C72.685099,7.84292502 73.5783734,8.20466846 74.6713106,8.20466846 C75.704783,8.20466846 76.5542183,7.81202231 77.2196165,7.02582111 C77.3928024,7.26758934 77.5126001,7.54525924 77.5790097,7.86019417 L77.8186051,7.86019417 L77.8186051,5.08849411 L77.5790097,5.08849411 C77.5343026,5.54794464 77.3884619,6.02330097 77.1414876,6.51547201 L77.1414876,6.51547201 Z M80.3894817,7.5484404 C80.8625959,8.01743441 81.4351075,8.25147697 82.1070164,8.25147697 C82.7784914,8.25147697 83.3523051,8.02107003 83.8267214,7.55980169 C84.3020059,7.09898781 84.5394311,6.46548234 84.5394311,5.66064863 C84.5394311,4.93307168 84.3054783,4.32228878 83.8384408,3.82784549 C83.3705352,3.33431109 82.7936831,3.0875439 82.1070164,3.0875439 C81.4242562,3.0875439 80.8482722,3.33294774 80.3808007,3.82511878 C79.9137632,4.31728982 79.6793763,4.92943607 79.6793763,5.66064863 C79.6793763,6.45048544 79.9163675,7.0794464 80.3894817,7.5484404 L80.3894817,7.5484404 Z M80.9919427,3.8896509 C81.2502023,3.53381533 81.623051,3.35567032 82.1096207,3.35567032 C82.6000969,3.35567032 82.9738137,3.53472423 83.2299031,3.89237761 C83.4864265,4.25048544 83.6144711,4.84945259 83.6144711,5.68973353 C83.6144711,6.53774014 83.4855584,7.13216278 83.2272988,7.47209254 C82.9690392,7.81293121 82.5961905,7.9828961 82.1096207,7.9828961 C81.6339022,7.9828961 81.2645259,7.81293121 81.0006237,7.47209254 C80.7367214,7.13216278 80.6047703,6.53774014 80.6047703,5.68973353 C80.6047703,4.84536253 80.7341172,4.24548647 80.9919427,3.8896509 L80.9919427,3.8896509 Z M89.0149178,3.27977691 L89.0149178,3.54790333 L89.1312432,3.54790333 C89.3951454,3.54790333 89.5691993,3.58971287 89.6529709,3.67378641 C89.7363085,3.75695104 89.7836199,3.85511258 89.7949052,3.96827102 C89.8057564,4.08142946 89.8118331,4.39818219 89.8118331,4.91943813 L89.8118331,5.99921504 C89.8118331,6.40731254 89.7636536,6.72179302 89.6690308,6.94129312 C89.5739739,7.16124768 89.3964475,7.36938649 89.1355836,7.56616402 C88.8747198,7.76203264 88.6008344,7.86019417 88.3143616,7.86019417 C88.1133965,7.86019417 87.9363043,7.80520554 87.7839528,7.6938649 C87.6307332,7.58343317 87.5361104,7.45436893 87.4983481,7.30621772 C87.4614539,7.15852097 87.4427897,6.92129725 87.4427897,6.59454658 L87.4427897,3.27977691 L85.8988748,3.27977691 L85.8988748,3.54790333 C86.1627771,3.54790333 86.3442099,3.57744268 86.4423051,3.63561248 C86.5408344,3.69378228 86.5989971,3.78421814 86.6176612,3.90692006 C86.6363253,4.02962198 86.6458744,4.36682504 86.6458744,4.91943813 L86.6458744,6.54728362 C86.6458744,6.97128692 86.6897134,7.28849411 86.7765234,7.49890518 C86.8642014,7.70886181 87.0247998,7.88700682 87.2591867,8.03243132 C87.4927054,8.17876472 87.7622503,8.25147697 88.0669532,8.25147697 C88.4198357,8.25147697 88.7423346,8.1583144 89.034016,7.97153481 C89.3256974,7.78475522 89.5848251,7.50663086 89.8118331,7.13716174 C89.8187779,7.66205329 89.8821492,8.03197686 90.0010788,8.2455691 L90.0679225,8.2455691 C90.3279182,8.12877505 90.7402655,8.06696963 91.3049642,8.05924396 L91.3049642,7.79066309 C91.0597261,7.79066309 90.8900126,7.75748812 90.7953898,7.69113819 C90.700767,7.62524272 90.6456426,7.52617228 90.630885,7.39392687 C90.6156932,7.26122702 90.6087484,6.9349308 90.6087484,6.41322041 L90.6087484,3.27977691 L89.0149178,3.27977691 Z M92.2967678,3.37884735 L92.2967678,3.64697377 L92.4638769,3.64697377 C92.7017362,3.64697377 92.8671091,3.68242099 92.9595617,3.75240653 C93.0528824,3.82239207 93.1054024,3.92328031 93.118858,4.05598017 C93.1314454,4.18822557 93.1383902,4.50906837 93.1383902,5.01896302 L93.1383902,9.35988432 C93.1383902,9.892956 93.1314454,10.2151622 93.118858,10.3255939 C93.1054024,10.4369345 93.0589591,10.5323693 92.979528,10.6118984 C92.8992288,10.6914274 92.7277792,10.7318736 92.4638769,10.7318736 L92.2967678,10.7318736 L92.2967678,11 L94.6823051,11 L94.6823051,10.7318736 C94.4184029,10.7318736 94.2382722,10.7014253 94.1414791,10.6414377 C94.0451201,10.5809957 93.9860893,10.4905598 93.965689,10.3701301 C93.9457227,10.2487916 93.9353055,9.91249742 93.9353055,9.35988432 L93.9353055,7.54525924 C94.1657859,7.7793018 94.4097219,7.95517455 94.6679815,8.07333196 C94.926241,8.19239826 95.1970881,8.25147697 95.4792204,8.25147697 C96.1667552,8.25147697 96.7210367,8.00016526 97.1424989,7.49890518 C97.5648293,6.99719066 97.7753434,6.37231977 97.7753434,5.6252014 C97.7753434,4.86308614 97.5652634,4.24912208 97.1455373,3.78421814 C96.7258112,3.31976864 96.1997429,3.0875439 95.5686346,3.0875439 C95.2634977,3.0875439 94.9748546,3.15207602 94.7014033,3.28250361 C94.4288201,3.41338566 94.1731648,3.61061764 93.9353055,3.874654 C93.9353055,3.56744474 93.9036199,3.30477174 93.8402486,3.0875439 L93.6900674,3.0875439 C93.1288411,3.24251188 92.6644079,3.34021896 92.2967678,3.37884735 L92.2967678,3.37884735 Z M93.9353055,4.25412105 C94.1432153,3.9778145 94.3624105,3.77194794 94.5928909,3.63561248 C94.8233713,3.49927701 95.0668732,3.43110927 95.3229625,3.43110927 C95.7392162,3.43110927 96.0977413,3.60834538 96.3985377,3.9628176 C96.6997682,4.31638091 96.8499494,4.8512704 96.8499494,5.56703161 C96.8499494,6.39231564 96.6936915,6.9931006 96.3820438,7.37029539 C96.0699621,7.74749019 95.7040582,7.93654204 95.283898,7.93654204 C95.0351875,7.93654204 94.7981964,7.87155546 94.5733586,7.74249122 C94.3485209,7.61297253 94.1362705,7.42119397 93.9353055,7.16579219 L93.9353055,4.25412105 Z M100.533729,0.0349927701 C100.418706,0.0895269572 100.20906,0.144061144 99.9034893,0.198595332 C99.5983523,0.253129519 99.3322798,0.280396612 99.107008,0.280396612 L99.107008,0.548977484 C99.4373198,0.548977484 99.6456637,0.613509605 99.7311715,0.743937203 C99.8162453,0.874819252 99.8592162,1.19066309 99.8592162,1.69237761 L99.8592162,6.41958273 C99.8592162,6.97128692 99.8496671,7.30621772 99.831437,7.42255732 C99.8127729,7.53980583 99.7559123,7.63024169 99.6612895,7.6938649 C99.5666667,7.75839703 99.4078045,7.79066309 99.185137,7.79066309 L99.0288791,7.79066309 L99.0288791,8.05924396 L101.464332,8.05924396 L101.464332,7.79066309 L101.330645,7.79066309 C101.092786,7.79066309 100.927413,7.75567032 100.834526,7.68523032 C100.742073,7.61569924 100.688685,7.51435654 100.675664,7.38165668 C100.662642,7.24986573 100.656131,6.92902293 100.656131,6.41958273 L100.656131,0.0349927701 L100.533729,0.0349927701 Z M106.373434,3.66060731 C106.045727,3.278868 105.582596,3.0875439 104.983607,3.0875439 C104.34729,3.0875439 103.817316,3.3370378 103.392815,3.83693452 C102.968748,4.33683123 102.756932,4.96442884 102.756932,5.71927288 C102.756932,6.25189011 102.866747,6.70497831 103.086376,7.07899194 C103.305571,7.45209667 103.587703,7.74112787 103.931471,7.94517662 C104.275672,8.14922537 104.641142,8.25147697 105.028314,8.25147697 C105.444568,8.25147697 105.830004,8.13968188 106.183321,7.91609172 C106.536637,7.69250155 106.773194,7.38165668 106.892124,6.98492047 L106.626485,6.98492047 C106.343051,7.61933485 105.862558,7.93654204 105.185006,7.93654204 C104.685849,7.93654204 104.310396,7.72567651 104.059081,7.30439992 C103.807767,6.88312332 103.681892,6.25325346 103.681892,5.41433588 C103.681892,5.30208635 103.689705,5.13121256 103.704029,4.90216897 L106.892124,4.90216897 C106.87346,4.45680644 106.700708,4.04325553 106.373434,3.66060731 L106.373434,3.66060731 Z M103.726599,4.66312745 C103.857248,3.78330923 104.260914,3.34385458 104.939334,3.34385458 C105.218428,3.34385458 105.454117,3.4383805 105.645967,3.6269779 C105.837817,3.81557529 105.933308,4.08142946 105.933308,4.42363148 C105.933308,4.49361702 105.928534,4.5736005 105.916814,4.66312745 L103.726599,4.66312745 Z M116.465959,3.54790333 C117.045849,3.61834332 117.335794,3.87692625 117.335794,4.32456104 C117.335794,4.51088618 117.274593,4.77083247 117.151757,5.10303656 C117.029355,5.4356951 116.862246,5.75790126 116.65043,6.06874613 C116.063161,5.19392687 115.438563,4.28729601 114.777505,3.34930799 C115.847872,2.78533361 116.382621,2.20409006 116.382621,1.60512291 C116.382621,1.21974799 116.220721,0.908448668 115.897788,0.671679405 C115.574421,0.434001239 115.211989,0.314934931 114.810927,0.314934931 C114.361252,0.314934931 113.987969,0.473538525 113.690645,0.790745714 C113.393321,1.1079529 113.244442,1.46878744 113.244442,1.87324933 C113.244442,2.38723404 113.462335,2.96075191 113.896818,3.59471184 C113.175862,4.10051642 112.688424,4.51952076 112.433637,4.85263375 C112.179284,5.18483784 112.052107,5.59657096 112.052107,6.08646974 C112.052107,6.51456311 112.154109,6.8917579 112.358546,7.21896302 C112.562984,7.54525924 112.827754,7.79929767 113.152857,7.98016939 C113.47796,8.16104111 113.818689,8.25147697 114.175912,8.25147697 C114.903814,8.25147697 115.594821,7.87019211 116.248934,7.10762239 C116.798875,7.87019211 117.435626,8.25147697 118.160923,8.25147697 C118.495141,8.25147697 118.789861,8.15331543 119.044214,7.95699236 C119.298567,7.76066928 119.464808,7.50299525 119.542937,7.1835158 L119.286414,7.1835158 C119.096734,7.53026234 118.827623,7.70295394 118.478213,7.70295394 C118.22169,7.70295394 117.980358,7.62342491 117.753784,7.46345796 C117.526776,7.30439992 117.215129,6.92675067 116.817539,6.33141913 C116.984648,6.09828548 117.168685,5.73290642 117.369216,5.23437306 C117.607075,4.6317703 117.83799,4.22140054 118.062828,4.00371824 C118.288099,3.78558149 118.5507,3.63379467 118.851496,3.54790333 L118.851496,3.27977691 L116.465959,3.27977691 L116.465959,3.54790333 Z M113.946734,1.57013014 C113.946734,1.29382359 114.027901,1.06205329 114.189368,0.875273704 C114.351268,0.688948564 114.565689,0.595331543 114.833064,0.595331543 C115.104345,0.595331543 115.322672,0.692584177 115.488045,0.887089444 C115.653418,1.08204916 115.736321,1.33654204 115.736321,1.65147697 C115.736321,2.18045858 115.364775,2.67262962 114.621247,3.12753563 C114.171572,2.47039868 113.946734,1.95096055 113.946734,1.57013014 L113.946734,1.57013014 Z M116.081825,6.86858087 C115.643,7.40165255 115.16598,7.66796117 114.649461,7.66796117 C114.184593,7.66796117 113.768774,7.45482338 113.4007,7.02900227 C113.032625,6.60318116 112.849022,6.15054741 112.849022,5.67200992 C112.849022,5.36116505 112.954496,5.03895889 113.166747,4.70630035 C113.378563,4.37409626 113.677623,4.08324726 114.063928,3.83420781 C114.628626,4.60859327 115.300969,5.61974799 116.081825,6.86858087 L116.081825,6.86858087 Z M124.100459,0.146333402 L124.100459,0.414459822 L124.234147,0.414459822 C124.617413,0.414459822 124.865255,0.449907044 124.978542,0.519438133 C125.091829,0.589878124 125.166051,0.716215658 125.201209,0.898905185 C125.236802,1.08204916 125.254598,1.48832886 125.254598,2.11819872 L125.254598,5.99921504 C125.254598,6.66044206 125.236802,7.08171865 125.201209,7.26259037 C125.166051,7.44346209 125.086186,7.57616195 124.962048,7.66205329 C124.837042,7.74749019 124.613072,7.79066309 124.290139,7.79066309 L124.056186,7.79066309 L124.056186,8.05924396 L127.572857,8.05924396 L127.572857,7.79066309 L127.316768,7.79066309 C126.971264,7.79066309 126.737745,7.74385458 126.61708,7.65069201 C126.496414,7.55752944 126.420889,7.41437719 126.391374,7.22259864 C126.361424,7.03036563 126.347101,6.62317703 126.347101,6.00194175 L126.347101,4.03825656 L127.054168,4.03825656 C127.426148,4.03825656 127.675727,4.07415823 127.804206,4.14641603 C127.932684,4.21821938 128.029477,4.35228259 128.094151,4.54906011 C128.158824,4.74538319 128.191812,5.0126007 128.191812,5.35116711 L128.470038,5.35116711 L128.470038,2.55583557 L128.191812,2.55583557 C128.191812,3.04255319 128.116287,3.36657715 127.965672,3.52790746 C127.815491,3.68923776 127.511222,3.76967569 127.054168,3.76967569 L126.347101,3.76967569 L126.347101,0.414459822 L127.823738,0.414459822 C128.292078,0.414459822 128.624126,0.449907044 128.821618,0.519438133 C129.018243,0.589878124 129.20662,0.765750878 129.387185,1.04751084 C129.567316,1.32972526 129.683641,1.68692419 129.735727,2.11819872 L129.99225,2.11819872 L129.930615,0.146333402 L124.100459,0.146333402 Z M134.657417,7.75567032 C134.508104,7.75567032 134.411311,7.69113819 134.366603,7.5625284 C134.321896,7.43482751 134.299326,7.14488742 134.299326,6.69361702 L134.299326,4.76219789 C134.299326,4.35319149 134.257657,4.04961785 134.173885,3.85147697 C134.090548,3.65288164 133.91823,3.47609998 133.658668,3.32067755 C133.398239,3.16480066 133.032335,3.0875439 132.560523,3.0875439 C131.925508,3.0875439 131.456734,3.21433588 131.155938,3.46928321 C130.855141,3.72468498 130.704526,3.9628176 130.704526,4.18458996 C130.704526,4.40999793 130.817813,4.52270192 131.044821,4.52270192 C131.297004,4.52270192 131.453262,4.32456104 131.512727,3.92737038 C131.576098,3.53881429 131.887311,3.34385458 132.446367,3.34385458 C132.725461,3.34385458 132.951167,3.40247883 133.122617,3.51881843 C133.293633,3.63561248 133.399975,3.76785788 133.441209,3.91555464 C133.48201,4.06325139 133.50241,4.30274737 133.50241,4.6335881 L133.50241,4.86672175 L132.636915,5.23437306 C131.978028,5.51840529 131.461509,5.81061764 131.087358,6.10964677 C130.713207,6.4095848 130.526131,6.7595125 130.526131,7.16033877 C130.526131,7.46800248 130.638116,7.71476968 130.861218,7.90109482 C131.084753,8.08832886 131.350826,8.18149143 131.659869,8.18149143 C131.902069,8.18149143 132.176389,8.11150589 132.483262,7.97153481 C132.790569,7.83156373 133.13043,7.62342491 133.50241,7.34711836 C133.546684,7.62342491 133.642609,7.83156373 133.788883,7.97153481 C133.935158,8.11150589 134.133953,8.18149143 134.385702,8.18149143 C134.975141,8.18149143 135.286355,7.84883289 135.319777,7.1835158 L135.116207,7.1835158 C135.056308,7.56480066 134.903523,7.75567032 134.657417,7.75567032 L134.657417,7.75567032 Z M133.50241,7.03172898 C133.215504,7.27349721 132.956376,7.45436893 132.725895,7.5747986 C132.494981,7.69522826 132.291846,7.75567032 132.11649,7.75567032 C131.918997,7.75567032 131.758833,7.68068581 131.635997,7.53071679 C131.513161,7.38120223 131.451525,7.1835158 131.451525,6.93856641 C131.451525,6.32005784 131.932019,5.80607313 132.893439,5.39797562 L133.50241,5.14121049 L133.50241,7.03172898 Z M136.41662,3.34930799 L136.41662,3.61834332 C136.671408,3.61834332 136.847198,3.64924602 136.945293,3.71150589 C137.04252,3.7742202 137.099815,3.86601942 137.116308,3.98872134 C137.133236,4.11142326 137.141483,4.4449907 137.141483,4.98942367 L137.141483,6.41958273 C137.141483,6.99491841 137.130632,7.33939269 137.108062,7.45209667 C137.086359,7.56480066 137.02646,7.64932865 136.928365,7.7061351 C136.830704,7.76203264 136.659688,7.79066309 136.41662,7.79066309 L136.41662,8.05924396 L138.646334,8.05924396 L138.646334,7.79066309 C138.397189,7.79066309 138.224437,7.75748812 138.127644,7.69113819 C138.030851,7.62524272 137.975293,7.52799008 137.960535,7.39983474 C137.945777,7.27122495 137.938399,6.94401983 137.938399,6.41958273 L137.938399,4.4290849 C138.187109,4.11778558 138.431913,3.88465193 138.671075,3.72877505 C138.911104,3.57335261 139.145925,3.4956414 139.376405,3.4956414 C139.613831,3.4956414 139.812625,3.56244578 139.972356,3.69650899 C140.132086,3.8314811 140.228011,3.9928114 140.259697,4.18095435 C140.290948,4.37046065 140.307008,4.67448874 140.307008,5.09440198 L140.307008,6.41958273 C140.307008,6.99855402 140.295289,7.34530056 140.270548,7.45800454 C140.246675,7.57070853 140.185474,7.65432762 140.086945,7.70886181 C139.988416,7.76339599 139.814796,7.79066309 139.566085,7.79066309 L139.566085,8.05924396 L141.767151,8.05924396 L141.767151,7.79066309 C141.533633,7.79066309 141.37043,7.75476141 141.279279,7.68250361 C141.188563,7.61070027 141.136911,7.50935757 141.12389,7.37892997 C141.110434,7.24895683 141.103923,6.92902293 141.103923,6.41958273 L141.103923,4.53451766 C141.349161,4.18595332 141.593965,3.92600702 141.837033,3.75376988 C142.080535,3.58153274 142.322735,3.4956414 142.564501,3.4956414 C142.801926,3.4956414 142.995512,3.5538112 143.143957,3.6710597 C143.292836,3.78785375 143.384421,3.92827928 143.420013,4.09188184 C143.455171,4.2554844 143.472967,4.49907044 143.472967,4.8221855 L143.472967,6.41731047 C143.472967,6.98991944 143.461247,7.33393927 143.439545,7.44891551 C143.416974,7.56389176 143.356641,7.64932865 143.258546,7.7061351 C143.159583,7.76203264 142.989869,7.79066309 142.748538,7.79066309 L142.748538,8.05924396 L145.027733,8.05924396 L145.027733,7.79066309 C144.759924,7.79066309 144.577623,7.76112373 144.479094,7.70295394 C144.380131,7.64432968 144.320666,7.55525718 144.3007,7.43482751 C144.280299,7.31439785 144.269882,6.97583144 144.269882,6.41958273 L144.269882,4.98397025 C144.269882,4.49725263 144.243839,4.14505268 144.191753,3.92737038 C144.139667,3.70968808 143.991222,3.51518281 143.745984,3.34385458 C143.500312,3.17298079 143.201686,3.0875439 142.848803,3.0875439 C142.540194,3.0875439 142.237227,3.1766164 141.939903,3.35567032 C141.642579,3.53472423 141.353068,3.80285065 141.070936,4.16095848 C140.978049,3.80285065 140.814412,3.53472423 140.580893,3.35567032 C140.347375,3.1766164 140.043106,3.0875439 139.668521,3.0875439 C139.338643,3.0875439 139.0296,3.17070853 138.742693,3.33794671 C138.454484,3.50518488 138.186675,3.75604214 137.938399,4.09051849 C137.938399,3.68242099 137.884576,3.34794464 137.777366,3.0875439 L137.721808,3.0875439 C137.377172,3.20797356 136.942689,3.29522826 136.41662,3.34930799 L136.41662,3.34930799 Z M146.897185,1.08568478 C147.010472,1.20611444 147.147198,1.2665565 147.306928,1.2665565 C147.466224,1.2665565 147.602082,1.20611444 147.713633,1.08568478 C147.824749,0.965255113 147.880742,0.819376162 147.880742,0.648047924 C147.880742,0.48080975 147.824749,0.336748606 147.713633,0.215864491 C147.602082,0.0954348275 147.466224,0.0349927701 147.306928,0.0349927701 C147.147198,0.0349927701 147.010472,0.0954348275 146.897185,0.215864491 C146.783898,0.336748606 146.727038,0.48080975 146.727038,0.648047924 C146.727038,0.819376162 146.783898,0.965255113 146.897185,1.08568478 L146.897185,1.08568478 Z M147.680211,3.0875439 C147.316043,3.22297046 146.802996,3.32658542 146.141938,3.39657096 L146.141938,3.66515183 L146.292554,3.66515183 C146.500029,3.66515183 146.646304,3.68014873 146.729642,3.71150589 C146.813413,3.74240859 146.880257,3.82057426 146.930607,3.94509399 C146.980523,4.06961372 147.005697,4.41181574 147.005697,4.97170006 L147.005697,6.41958273 C147.005697,6.95219996 146.999187,7.27395166 146.986165,7.38529229 C146.973144,7.49572402 146.927134,7.59115885 146.846835,7.67068787 C146.767404,7.75067135 146.595086,7.79066309 146.331618,7.79066309 L146.141938,7.79066309 L146.141938,8.05924396 L148.599962,8.05924396 L148.599962,7.79066309 L148.482769,7.79066309 C148.244909,7.79066309 148.079536,7.75567032 147.98665,7.68523032 C147.893763,7.61569924 147.839941,7.51435654 147.824749,7.38165668 C147.810426,7.24986573 147.803047,6.92902293 147.803047,6.41958273 L147.803047,3.0875439 L147.680211,3.0875439 Z M151.123961,0.0349927701 C151.008938,0.0895269572 150.799292,0.144061144 150.493721,0.198595332 C150.188584,0.253129519 149.922946,0.280396612 149.69724,0.280396612 L149.69724,0.548977484 C150.027552,0.548977484 150.235895,0.613509605 150.321403,0.743937203 C150.406477,0.874819252 150.449448,1.19066309 150.449448,1.69237761 L150.449448,6.41958273 C150.449448,6.97128692 150.439899,7.30621772 150.421669,7.42255732 C150.403005,7.53980583 150.346144,7.63024169 150.251521,7.6938649 C150.156898,7.75839703 149.998036,7.79066309 149.775369,7.79066309 L149.619111,7.79066309 L149.619111,8.05924396 L152.054564,8.05924396 L152.054564,7.79066309 L151.920877,7.79066309 C151.683017,7.79066309 151.518078,7.75567032 151.424758,7.68523032 C151.332305,7.61569924 151.278917,7.51435654 151.265895,7.38165668 C151.252874,7.24986573 151.246797,6.92902293 151.246797,6.41958273 L151.246797,0.0349927701 L151.123961,0.0349927701 Z M154.629347,4.35864491 C154.484374,4.0359843 154.411888,3.8455691 154.411888,3.78694485 C154.411888,3.63924809 154.595925,3.55971907 154.963131,3.54790333 L154.963131,3.27977691 L152.867539,3.27977691 L152.867539,3.54790333 C153.109305,3.54790333 153.28032,3.59334848 153.380152,3.68242099 C153.480851,3.77194794 153.60716,3.98599463 153.759077,4.32456104 L155.470535,8.17512911 L155.033881,9.3103491 C154.959659,9.50485437 154.884134,9.63891758 154.808175,9.71344763 C154.732217,9.78752324 154.581167,9.87659574 154.354593,9.98202851 C153.969157,10.1656269 153.776439,10.3896716 153.776439,10.6550713 C153.776439,10.8850238 153.897105,11 154.138871,11 C154.317265,11 154.480902,10.9109275 154.629347,10.7341458 C154.778226,10.5569097 154.949241,10.2228878 155.142828,9.7316257 L157.181559,4.59268746 C157.352575,4.16095848 157.495377,3.88192522 157.611268,3.75558769 C157.726292,3.62925015 157.908158,3.55971907 158.157303,3.54790333 L158.157303,3.27977691 L156.551753,3.27977691 L156.551753,3.54790333 C156.966705,3.55608345 157.173746,3.65742615 157.173746,3.85193142 C157.173746,3.89510432 157.097354,4.11142326 156.945436,4.50043379 L155.880278,7.1544309 L154.629347,4.35864491 Z M163.263898,0.927990085 C163.410607,0.683040694 163.567733,0.53625284 163.734842,0.487172072 C163.901951,0.439000207 164.228791,0.414459822 164.71536,0.414459822 L165.836077,0.414459822 L165.836077,5.99921504 C165.836077,6.66044206 165.818715,7.08171865 165.783123,7.26259037 C165.747531,7.44346209 165.667665,7.57616195 165.543093,7.66205329 C165.418955,7.74749019 165.194985,7.79066309 164.871618,7.79066309 L164.481842,7.79066309 L164.481842,8.05924396 L168.255036,8.05924396 L168.255036,7.79066309 L167.886962,7.79066309 C167.548837,7.79066309 167.318791,7.74385458 167.195954,7.65069201 C167.073552,7.55752944 166.998028,7.41346829 166.970249,7.21896302 C166.942469,7.02445776 166.928146,6.61772361 166.928146,5.99921504 L166.928146,0.414459822 L168.143485,0.414459822 C168.555832,0.414459822 168.847514,0.440818013 169.018529,0.493079942 C169.189545,0.545796323 169.349275,0.688039661 169.498154,0.919355505 C169.646165,1.15067135 169.763359,1.52695724 169.848866,2.04866763 L170.088896,2.04866763 L170.049831,0.146333402 L162.709182,0.146333402 L162.670552,2.04866763 L162.926641,2.04866763 C163.00477,1.54695311 163.117189,1.17293948 163.263898,0.927990085 L163.263898,0.927990085 Z M173.002672,0.0349927701 L172.885912,0.0349927701 C172.50308,0.198595332 172.023456,0.280396612 171.447906,0.280396612 L171.447906,0.548977484 C171.778217,0.548977484 171.987429,0.612600702 172.075107,0.741210494 C172.161917,0.869820285 172.205756,1.17521173 172.205756,1.65738484 L172.205756,6.41958273 C172.205756,6.95219996 172.19968,7.27395166 172.186658,7.38529229 C172.173637,7.49572402 172.126759,7.59115885 172.046894,7.67068787 C171.967029,7.75067135 171.793409,7.79066309 171.526035,7.79066309 L171.408841,7.79066309 L171.408841,8.05924396 L173.727101,8.05924396 L173.727101,7.79066309 C173.471011,7.79066309 173.294787,7.75839703 173.197994,7.6938649 C173.101201,7.63024169 173.044775,7.53617021 173.028281,7.41119603 C173.010919,7.28713076 173.002672,6.95629002 173.002672,6.41958273 L173.002672,4.50543276 C173.177594,4.15096055 173.379861,3.88556083 173.610775,3.70877918 C173.840822,3.53154307 174.100818,3.44337947 174.390763,3.44337947 C174.639473,3.44337947 174.846949,3.50518488 175.012322,3.62970461 C175.177261,3.75422433 175.282301,3.91191902 175.327442,4.10278868 C175.371281,4.29320388 175.393852,4.58677959 175.393852,4.98397025 L175.393852,6.41958273 C175.393852,6.94856435 175.386907,7.26849824 175.374753,7.37892997 C175.361298,7.49027061 175.314855,7.58615988 175.234989,7.66796117 C175.155124,7.74976245 174.979768,7.79066309 174.708487,7.79066309 L174.602579,7.79066309 L174.602579,8.05924396 L176.959903,8.05924396 L176.959903,7.79066309 C176.689056,7.79066309 176.503283,7.76203264 176.402583,7.7061351 C176.302318,7.64932865 176.241985,7.56116505 176.221584,7.44073539 C176.201184,7.31985127 176.190767,6.97946705 176.190767,6.41958273 L176.190767,5.10030985 C176.190767,4.56360256 176.153873,4.17550093 176.079216,3.93645941 C176.004994,3.69650899 175.844829,3.4956414 175.597421,3.33203883 C175.350013,3.16843627 175.038799,3.0875439 174.66378,3.0875439 C174.333034,3.0875439 174.029199,3.16843627 173.75271,3.33203883 C173.475786,3.4956414 173.225773,3.74059079 173.002672,4.06734146 L173.002672,0.0349927701 Z M181.930641,3.66060731 C181.602499,3.278868 181.139368,3.0875439 180.540813,3.0875439 C179.904062,3.0875439 179.374088,3.3370378 178.950021,3.83693452 C178.525954,4.33683123 178.314138,4.96442884 178.314138,5.71927288 C178.314138,6.25189011 178.423085,6.70497831 178.643148,7.07899194 C178.862777,7.45209667 179.144041,7.74112787 179.488677,7.94517662 C179.832878,8.14922537 180.198348,8.25147697 180.585086,8.25147697 C181.001774,8.25147697 181.38721,8.13968188 181.740527,7.91609172 C182.093843,7.69250155 182.3304,7.38165668 182.44933,6.98492047 L182.182823,6.98492047 C181.899823,7.61933485 181.419764,7.93654204 180.741778,7.93654204 C180.242621,7.93654204 179.867168,7.72567651 179.616287,7.30439992 C179.364973,6.88312332 179.238664,6.25325346 179.238664,5.41433588 C179.238664,5.30208635 179.246043,5.13121256 179.261235,4.90216897 L182.44933,4.90216897 C182.430666,4.45680644 182.257914,4.04325553 181.930641,3.66060731 L181.930641,3.66060731 Z M179.283805,4.66312745 C179.413586,3.78330923 179.818121,3.34385458 180.496106,3.34385458 C180.775634,3.34385458 181.011323,3.4383805 181.202739,3.6269779 C181.395023,3.81557529 181.490514,4.08142946 181.490514,4.42363148 C181.490514,4.49361702 181.484871,4.5736005 181.47402,4.66312745 L179.283805,4.66312745 Z M185.285845,3.0875439 C184.722882,3.27386904 184.267564,3.38884528 183.91989,3.43110927 L183.91989,3.69378228 L184.037084,3.69378228 C184.274943,3.69378228 184.440316,3.72968395 184.533203,3.80194175 C184.625655,3.87374509 184.678609,3.97508779 184.691631,4.10551539 C184.704652,4.23548854 184.711597,4.55769469 184.711597,5.07122495 L184.711597,6.41958273 C184.711597,6.97128692 184.702048,7.30621772 184.683384,7.42255732 C184.66472,7.53980583 184.608727,7.63024169 184.51367,7.6938649 C184.419048,7.75839703 184.259751,7.79066309 184.037084,7.79066309 L183.91989,7.79066309 L183.91989,8.05924396 L186.344492,8.05924396 L186.344492,7.79066309 L186.187366,7.79066309 C185.947771,7.79066309 185.781096,7.75567032 185.688209,7.68523032 C185.594454,7.61569924 185.541066,7.51435654 185.528045,7.38165668 C185.515457,7.24986573 185.508512,6.92902293 185.508512,6.41958273 L185.508512,5.56703161 C185.508512,5.13939269 185.540198,4.80309853 185.603135,4.55769469 C185.666072,4.31229085 185.809309,4.07597604 186.031976,3.84875026 C186.255512,3.62107003 186.446494,3.50700269 186.606224,3.50700269 C186.739912,3.50700269 186.840611,3.60470977 186.907455,3.79921504 C187.003814,4.08688288 187.14488,4.23094402 187.330653,4.23094402 C187.434825,4.23094402 187.523371,4.19004338 187.595858,4.1082421 C187.66791,4.02644082 187.70437,3.92918818 187.70437,3.8164842 C187.70437,3.64924602 187.63362,3.48564346 187.492554,3.32658542 C187.351488,3.16707292 187.157901,3.0875439 186.912663,3.0875439 C186.641816,3.0875439 186.364024,3.2038835 186.080156,3.4374716 C185.795419,3.67060525 185.590114,3.96054534 185.463805,4.30638298 C185.452954,3.8014873 185.393489,3.39475315 185.285845,3.0875439 L185.285845,3.0875439 Z M192.988925,7.75567032 C192.839178,7.75567032 192.742385,7.69113819 192.697678,7.5625284 C192.652971,7.43482751 192.630834,7.14488742 192.630834,6.69361702 L192.630834,4.76219789 C192.630834,4.35319149 192.589166,4.04961785 192.505394,3.85147697 C192.422056,3.65288164 192.249739,3.47609998 191.989743,3.32067755 C191.729747,3.16480066 191.363843,3.0875439 190.891597,3.0875439 C190.256582,3.0875439 189.788243,3.21433588 189.487446,3.46928321 C189.186216,3.72468498 189.036035,3.9628176 189.036035,4.18458996 C189.036035,4.40999793 189.148887,4.52270192 189.375895,4.52270192 C189.628512,4.52270192 189.784336,4.32456104 189.843801,3.92737038 C189.907172,3.53881429 190.218386,3.34385458 190.777442,3.34385458 C191.056536,3.34385458 191.282676,3.40247883 191.453692,3.51881843 C191.625141,3.63561248 191.731049,3.76785788 191.772284,3.91555464 C191.813085,4.06325139 191.833919,4.30274737 191.833919,4.6335881 L191.833919,4.86672175 L190.96799,5.23437306 C190.309102,5.51840529 189.792583,5.81061764 189.418432,6.10964677 C189.044282,6.4095848 188.85764,6.7595125 188.85764,7.16033877 C188.85764,7.46800248 188.969191,7.71476968 189.192727,7.90109482 C189.415828,8.08832886 189.681901,8.18149143 189.990944,8.18149143 C190.233144,8.18149143 190.507463,8.11150589 190.81477,7.97153481 C191.121643,7.83156373 191.461504,7.62342491 191.833919,7.34711836 C191.878192,7.62342491 191.973683,7.83156373 192.119958,7.97153481 C192.266233,8.11150589 192.465027,8.18149143 192.71721,8.18149143 C193.306216,8.18149143 193.617429,7.84883289 193.650851,7.1835158 L193.447282,7.1835158 C193.387383,7.56480066 193.234598,7.75567032 192.988925,7.75567032 L192.988925,7.75567032 Z M191.833919,7.03172898 C191.547012,7.27349721 191.287885,7.45436893 191.05697,7.5747986 C190.826056,7.69522826 190.62292,7.75567032 190.447564,7.75567032 C190.250506,7.75567032 190.089907,7.68068581 189.967071,7.53071679 C189.844235,7.38120223 189.783034,7.1835158 189.783034,6.93856641 C189.783034,6.32005784 190.263527,5.80607313 191.224947,5.39797562 L191.833919,5.14121049 L191.833919,7.03172898 Z M194.469035,3.37884735 L194.469035,3.64697377 L194.636578,3.64697377 C194.874003,3.64697377 195.03981,3.68242099 195.132697,3.75240653 C195.225584,3.82239207 195.278538,3.92328031 195.291559,4.05598017 C195.304581,4.18822557 195.310657,4.50906837 195.310657,5.01896302 L195.310657,9.35988432 C195.310657,9.892956 195.304581,10.2151622 195.291559,10.3255939 C195.278538,10.4369345 195.232094,10.5323693 195.152229,10.6118984 C195.072364,10.6914274 194.900046,10.7318736 194.636578,10.7318736 L194.469035,10.7318736 L194.469035,11 L196.854572,11 L196.854572,10.7318736 C196.59067,10.7318736 196.410539,10.7014253 196.31418,10.6414377 C196.217387,10.5809957 196.159225,10.4905598 196.13839,10.3701301 C196.11799,10.2487916 196.108007,9.91249742 196.108007,9.35988432 L196.108007,7.54525924 C196.338487,7.7793018 196.582423,7.95517455 196.841117,8.07333196 C197.099376,8.19239826 197.369355,8.25147697 197.651488,8.25147697 C198.339022,8.25147697 198.893304,8.00016526 199.315634,7.49890518 C199.737097,6.99719066 199.948045,6.37231977 199.948045,5.6252014 C199.948045,4.86308614 199.738399,4.24912208 199.318239,3.78421814 C198.898078,3.31976864 198.372444,3.0875439 197.740902,3.0875439 C197.436199,3.0875439 197.147122,3.15207602 196.874539,3.28250361 C196.601087,3.41338566 196.345432,3.61061764 196.108007,3.874654 C196.108007,3.56744474 196.076321,3.30477174 196.01295,3.0875439 L195.862335,3.0875439 C195.301542,3.24251188 194.837109,3.34021896 194.469035,3.37884735 L194.469035,3.37884735 Z M196.108007,4.25412105 C196.315917,3.9778145 196.535112,3.77194794 196.765592,3.63561248 C196.996072,3.49927701 197.23914,3.43110927 197.496098,3.43110927 C197.911917,3.43110927 198.270442,3.60834538 198.571239,3.9628176 C198.872469,4.31638091 199.023085,4.8512704 199.023085,5.56703161 C199.023085,6.39231564 198.866827,6.9931006 198.554745,7.37029539 C198.242663,7.74749019 197.876325,7.93654204 197.457033,7.93654204 C197.207455,7.93654204 196.970898,7.87155546 196.746494,7.74249122 C196.521656,7.61297253 196.308538,7.42119397 196.108007,7.16579219 L196.108007,4.25412105 Z M202.472478,4.35864491 C202.327939,4.0359843 202.255019,3.8455691 202.255019,3.78694485 C202.255019,3.63924809 202.438622,3.55971907 202.806696,3.54790333 L202.806696,3.27977691 L200.711104,3.27977691 L200.711104,3.54790333 C200.952436,3.54790333 201.123451,3.59334848 201.223717,3.68242099 C201.324416,3.77194794 201.450291,3.98599463 201.602642,4.32456104 L203.313666,8.17512911 L202.877446,9.3103491 C202.802356,9.50485437 202.727699,9.63891758 202.65174,9.71344763 C202.575782,9.78752324 202.424298,9.87659574 202.198158,9.98202851 C201.812722,10.1656269 201.61957,10.3896716 201.61957,10.6550713 C201.61957,10.8850238 201.740236,11 201.982002,11 C202.160396,11 202.324033,10.9109275 202.472912,10.7341458 C202.621357,10.5569097 202.792807,10.2228878 202.985525,9.7316257 L205.025124,4.59268746 C205.195706,4.16095848 205.338942,3.88192522 205.453965,3.75558769 C205.568989,3.62925015 205.75129,3.55971907 206,3.54790333 L206,3.27977691 L204.395318,3.27977691 L204.395318,3.54790333 C204.809402,3.55608345 205.016877,3.65742615 205.016877,3.85193142 C205.016877,3.89510432 204.940919,4.11142326 204.788133,4.50043379 L203.723409,7.1544309 L202.472478,4.35864491 Z" id="Fill-3" fill="#0D3F4A" mask="url(#mask-2)"></path>
                </g>
            </g>
        </g>
    </g>
</svg>