<?xml version="1.0" encoding="UTF-8"?>
<svg width="51px" height="51px" viewBox="0 0 51 51" version="1.1" xmlns="http://www.w3.org/2000/svg" xmlns:xlink="http://www.w3.org/1999/xlink">
    <!-- Generator: Sketch 46.2 (44496) - http://www.bohemiancoding.com/sketch -->
    <title>play-right-arrow-control-circular-button</title>
    <desc>Created with Sketch.</desc>
    <defs></defs>
    <g id="Page-1" stroke="none" stroke-width="1" fill="none" fill-rule="evenodd" opacity="0.791791214">
        <g id="Single-Service" transform="translate(-1053.000000, -2026.000000)" fill="#FFFFFF">
            <path d="M1078.50036,2026 C1064.43943,2026 1053,2037.43943 1053,2051.50036 C1053,2065.56057 1064.43943,2077 1078.50036,2077 C1092.56057,2077 1104,2065.56057 1104,2051.50036 C1104,2037.43943 1092.56057,2026 1078.50036,2026 Z M1079.00037,2073 C1067.42,2073 1058,2063.58 1058,2052.00037 C1058,2040.42292 1067.42,2031 1079.00037,2031 C1090.58,2031 1100,2040.42292 1100,2052.00037 C1100,2063.58 1090.58,2073 1079.00037,2073 Z M1075,2059 L1085,2052.00037 L1075,2045 L1075,2059 Z" id="play-right-arrow-control-circular-button"></path>
        </g>
    </g>
</svg>